<?xml version="1.0" encoding="UTF-8"?>
<svg width="152px" height="145px" viewBox="0 0 152 145" version="1.1" xmlns="http://www.w3.org/2000/svg" xmlns:xlink="http://www.w3.org/1999/xlink">
    <title>avatar-cry</title>
    <g id="Page-1" stroke="none" stroke-width="1" fill="none" fill-rule="evenodd">
        <g id="2239545" transform="translate(-384.000000, -70.000000)">
            <g id="avatar-cry" transform="translate(384.205671, 70.763092)">
                <path d="M71.3823289,125.397908 C72.6373289,125.435908 73.7593289,125.967908 74.5763289,126.785908 C75.4133289,125.977908 76.5443289,125.473908 77.7993289,125.454908 C79.0443289,125.435908 80.1943289,125.901908 81.0503289,126.680908 C81.8493289,125.834908 82.9503289,125.274908 84.1963289,125.188908 C85.4413289,125.102908 86.6113289,125.511908 87.5153289,126.233908 C88.2553289,125.349908 89.3293289,124.731908 90.5663289,124.579908 C91.8113289,124.427908 92.9893289,124.769908 93.9313289,125.444908 C94.6243289,124.522908 95.6603289,123.847908 96.8873289,123.629908 C98.1133289,123.410908 99.3113289,123.686908 100.280329,124.304908 C100.927329,123.343908 101.906329,122.611908 103.123329,122.317908 C104.330329,122.032908 105.538329,122.221908 106.536329,122.783908 C107.116329,121.784908 108.047329,120.996908 109.235329,120.625908 C110.414329,120.264908 111.621329,120.378908 112.667329,120.862908 C113.171329,119.836908 114.036329,118.989908 115.186329,118.533908 C116.327329,118.087908 117.534329,118.106908 118.599329,118.505908 C119.026329,117.459908 119.816329,116.547908 120.918329,116.005908 C122.002329,115.472908 123.200329,115.387908 124.283329,115.691908 C124.607329,114.617908 125.301329,113.657908 126.328329,113.020908 C127.344329,112.383908 128.505329,112.183908 129.607329,112.364908 C129.806329,111.280908 130.377329,110.263908 131.309329,109.512908 C132.221329,108.790908 133.323329,108.447908 134.408329,108.476908 C134.455329,107.402908 134.873329,106.347908 135.652329,105.491908 C136.422329,104.664908 137.411329,104.160908 138.448329,104.008908 C138.323329,102.982908 138.523329,101.907908 139.104329,100.957908 C139.664329,100.034908 140.491329,99.3699084 141.433329,98.9999084 C141.090329,98.0769084 141.043329,97.0309084 141.347329,96.0139084 C141.650329,95.0159084 142.240329,94.1979084 143.011329,93.6099084 C142.450329,92.8299084 142.126329,91.8789084 142.126329,90.8429084 C142.126329,90.5959084 142.146329,90.3579084 142.174329,90.1199084 C142.126329,89.8929084 142.088329,89.6549084 142.069329,89.4069084 L142.060329,89.4069084 C141.975329,88.3719084 142.231329,87.3929084 142.726329,86.5659084 C141.908329,86.0429084 141.251329,85.2629084 140.872329,84.2839084 C140.482329,83.2769084 140.453329,82.2209084 140.738329,81.2609084 C139.769329,80.9569084 138.885329,80.3389084 138.267329,79.4359084 C137.621329,78.5139084 137.355329,77.4399084 137.431329,76.3939084 C136.375329,76.2889084 135.349329,75.8429084 134.541329,75.0349084 C133.704329,74.2169084 133.247329,73.1619084 133.152329,72.0879084 C132.060329,72.1639084 130.938329,71.8599084 129.996329,71.1559084 C129.036329,70.4429084 128.418329,69.4359084 128.181329,68.3619084 C127.088329,68.5699084 125.918329,68.4089084 124.882329,67.7999084 C123.827329,67.1919084 123.105329,66.2409084 122.753329,65.1769084 C121.669329,65.4999084 120.472329,65.4519084 119.369329,64.9389084 C118.257329,64.4259084 117.439329,63.5319084 116.992329,62.4869084 C115.937329,62.9149084 114.721329,62.9619084 113.569329,62.5339084 C112.410329,62.1069084 111.526329,61.2789084 110.993329,60.2619084 C109.968329,60.7659084 108.751329,60.8989084 107.571329,60.5569084 C106.374329,60.2049084 105.424329,59.4349084 104.834329,58.4459084 C103.836329,59.0259084 102.628329,59.2449084 101.412329,58.9689084 C100.195329,58.6939084 99.1973289,57.9809084 98.5413289,57.0299084 C97.5813289,57.6669084 96.3843289,57.9619084 95.1573289,57.7619084 C93.9213289,57.5619084 92.8853289,56.8969084 92.1723289,55.9849084 C91.2403289,56.6779084 90.0623289,57.0399084 88.8263289,56.9059084 C87.5803289,56.7739084 86.4973289,56.1749084 85.7363289,55.2999084 C84.8523289,56.0419084 83.6923289,56.4599084 82.4383289,56.3929084 C81.1923289,56.3269084 80.0803289,55.7849084 79.2733289,54.9479084 C78.4263289,55.7369084 77.2853289,56.2219084 76.0313289,56.2129084 C74.7853289,56.2129084 73.6453289,55.7279084 72.7993289,54.9289084 C71.9813289,55.7659084 70.8683289,56.3079084 69.6243289,56.3649084 C68.3683289,56.4309084 67.2193289,56.0039084 66.3253289,55.2529084 C65.5653289,56.1269084 64.4813289,56.7159084 63.2353289,56.8489084 C61.9903289,56.9729084 60.8113289,56.6119084 59.8903289,55.9179084 C59.1763289,56.8209084 58.1313289,57.4769084 56.8963289,57.6669084 C55.6693289,57.8669084 54.4713289,57.5719084 53.5113289,56.9249084 C52.8563289,57.8759084 51.8473289,58.5799084 50.6303289,58.8459084 C49.4143289,59.1119084 48.2063289,58.8929084 47.2183289,58.3129084 C46.6193289,59.2929084 45.6593289,60.0629084 44.4713289,60.3959084 C43.2823289,60.7369084 42.0663289,60.5949084 41.0393289,60.0819084 C40.5073289,61.0989084 39.6123289,61.9259084 38.4533289,62.3439084 C37.2943289,62.7619084 36.0863289,62.7049084 35.0313289,62.2779084 C34.5743289,63.3139084 33.7473289,64.1979084 32.6363289,64.7109084 C31.5243289,65.2149084 30.3163289,65.2529084 29.2413289,64.9199084 C28.8803289,65.9849084 28.1493289,66.9259084 27.0933289,67.5339084 C26.0483289,68.1239084 24.8693289,68.2849084 23.7753289,68.0569084 C23.5283289,69.1409084 22.9013289,70.1389084 21.9413289,70.8419084 C20.9823289,71.5359084 19.8593289,71.8209084 18.7673289,71.7359084 C18.6523289,72.8099084 18.1773289,73.8649084 17.3313289,74.6729084 C16.5133289,75.4719084 15.4683289,75.9089084 14.4123289,75.9949084 C14.4693289,77.0399084 14.1843289,78.1139084 13.5193289,79.0369084 C12.8823289,79.9209084 11.9883289,80.5289084 11.0093289,80.8149084 C11.2673289,81.7839084 11.2183289,82.8479084 10.8103289,83.8469084 C10.4013289,84.8169084 9.71632888,85.5869084 8.89032888,86.0899084 C9.36532888,86.9259084 9.59332888,87.9249084 9.47932888,88.9509084 C9.36532888,89.9779084 8.93832888,90.8899084 8.30032888,91.6039084 C8.99432888,92.2689084 9.49832888,93.1439084 9.68932888,94.1609084 L9.69732888,94.1509084 C9.88832888,95.1869084 9.73532888,96.2049084 9.31632888,97.0889084 C10.2013289,97.5349084 10.9523289,98.2579084 11.4283289,99.2079084 C11.9123289,100.187908 12.0263289,101.252908 11.8273289,102.250908 C12.8343289,102.477908 13.7753289,103.039908 14.4693289,103.903908 C15.1923289,104.797908 15.5343289,105.861908 15.5243289,106.926908 C16.5993289,106.955908 17.6633289,107.354908 18.5283289,108.124908 C19.4123289,108.904908 19.9353289,109.940908 20.0873289,111.024908 C21.1813289,110.890908 22.3213289,111.138908 23.3113289,111.803908 C24.2993289,112.478908 24.9643289,113.466908 25.2393289,114.550908 C26.3333289,114.284908 27.5123289,114.408908 28.5863289,114.978908 C29.6603289,115.558908 30.4203289,116.480908 30.8113289,117.545908 C31.8753289,117.183908 33.0823289,117.193908 34.2143289,117.669908 C35.3353289,118.153908 36.1913289,119.028908 36.6663289,120.064908 C37.7123289,119.607908 38.9193289,119.522908 40.0883289,119.921908 C41.2583289,120.320908 42.1703289,121.129908 42.7223289,122.136908 C43.7383289,121.604908 44.9553289,121.433908 46.1523289,121.756908 C47.3523289,122.069908 48.3203289,122.821908 48.9393289,123.799908 C49.9283289,123.201908 51.1253289,122.953908 52.3523289,123.201908 C53.5683289,123.448908 54.5853289,124.142908 55.2603289,125.073908 C56.2103289,124.418908 57.3993289,124.104908 58.6353289,124.275908 C59.8713289,124.456908 60.9253289,125.092908 61.6573289,125.986908 C62.5703289,125.283908 63.7493289,124.903908 64.9943289,125.007908 C66.2403289,125.111908 67.3233289,125.692908 68.1033289,126.556908 C68.9403289,125.834908 70.0323289,125.397908 71.2113289,125.397908 L71.3823289,125.397908 Z M74.5103289,133.572908 C73.6163289,134.437908 72.3903289,134.941908 71.0593289,134.903908 C69.7193289,134.846908 68.5213289,134.257908 67.6933289,133.335908 C66.7523289,134.142908 65.4983289,134.598908 64.1673289,134.475908 C62.8263289,134.361908 61.6673289,133.705908 60.8873289,132.735908 C59.8993289,133.496908 58.6253289,133.876908 57.2953289,133.686908 C55.9633289,133.496908 54.8423289,132.773908 54.1093289,131.766908 C53.0833289,132.479908 51.7803289,132.783908 50.4693289,132.517908 C49.1483289,132.251908 48.0653289,131.462908 47.3993289,130.406908 C46.3243289,131.053908 45.0033289,131.281908 43.7003289,130.939908 C42.3993289,130.587908 41.3613289,129.732908 40.7633289,128.629908 C39.6503289,129.209908 38.3113289,129.351908 37.0273289,128.914908 C35.7443289,128.477908 34.7653289,127.545908 34.2423289,126.404908 C33.0823289,126.908908 31.7233289,126.946908 30.4783289,126.414908 C29.2143289,125.882908 28.3113289,124.864908 27.8733289,123.667908 C26.6763289,124.085908 25.3073289,124.009908 24.1003289,123.362908 C22.8833289,122.716908 22.0653289,121.604908 21.7413289,120.368908 C20.4863289,120.663908 19.1183289,120.453908 17.9783289,119.674908 C16.8173289,118.894908 16.1143289,117.687908 15.9333289,116.394908 C14.6323289,116.547908 13.2803289,116.167908 12.2273289,115.235908 C11.1523289,114.284908 10.6193289,112.963908 10.6293289,111.641908 C9.28932888,111.594908 7.97832888,110.995908 7.07432888,109.873908 C6.15132888,108.733908 5.84832888,107.287908 6.11432888,105.957908 C4.77432888,105.653908 3.57532888,104.769908 2.91032888,103.438908 C2.23532888,102.078908 2.27432888,100.558908 2.87232888,99.2939084 C1.60832888,98.6479084 0.649328884,97.4499084 0.353328884,95.9479084 L0.362328884,95.9479084 C0.0673288839,94.4359084 0.524328884,92.9539084 1.48432888,91.8889084 C0.439328884,90.8999084 -0.140671116,89.4549084 0.0293288839,87.9249084 C0.191328884,86.3939084 1.06632888,85.1199084 2.28332888,84.3789084 C1.57932888,83.1529084 1.43732888,81.6219084 2.01732888,80.2149084 C2.58632888,78.8369084 3.73732888,77.8669084 5.06732888,77.4679084 C4.71632888,76.1469084 4.94432888,74.6729084 5.81032888,73.4759084 C6.65532888,72.2969084 7.94832888,71.6219084 9.28932888,71.5169084 C9.22232888,70.1869084 9.70732888,68.8269084 10.7423289,67.8289084 C11.7603289,66.8499084 13.1013289,66.4119084 14.4123289,66.5169084 C14.5453289,65.2149084 15.2113289,63.9789084 16.3523289,63.1519084 C17.4733289,62.3339084 18.8433289,62.0779084 20.1073289,62.3439084 C20.3923289,61.0899084 21.1813289,59.9579084 22.3883289,59.2739084 C23.5863289,58.5889084 24.9453289,58.4849084 26.1623289,58.8649084 C26.5703289,57.6569084 27.4543289,56.6209084 28.7003289,56.0609084 L28.7003289,56.0509084 C29.9453289,55.4899084 31.2953289,55.5089084 32.4743289,55.9849084 C32.9693289,54.8239084 33.9293289,53.8739084 35.2123289,53.4079084 C36.4853289,52.9429084 37.8253289,53.0659084 38.9473289,53.6269084 C39.5363289,52.5149084 40.5543289,51.6309084 41.8573289,51.2599084 C43.1493289,50.8889084 44.4803289,51.0979084 45.5653289,51.7259084 C46.2103289,50.6609084 47.2843289,49.8529084 48.5963289,49.5679084 C49.9173289,49.2729084 51.2203289,49.5579084 52.2563289,50.2519084 C52.9693289,49.2349084 54.0823289,48.4939084 55.4123289,48.2839084 C56.7333289,48.0749084 58.0263289,48.4369084 59.0153289,49.1779084 C59.7853289,48.1989084 60.9363289,47.5239084 62.2663289,47.3909084 L62.2753289,47.3909084 C63.6073289,47.2579084 64.8703289,47.6859084 65.8213289,48.4839084 C66.6393289,47.5519084 67.8173289,46.9349084 69.1573289,46.8679084 C70.4983289,46.8009084 71.7333289,47.2959084 72.6373289,48.1519084 C73.5023289,47.2579084 74.7193289,46.7059084 76.0503289,46.7059084 C77.3903289,46.7159084 78.5983289,47.2679084 79.4623289,48.1609084 C80.3753289,47.3149084 81.6113289,46.8299084 82.9503289,46.9059084 C84.2913289,46.9729084 85.4703289,47.5909084 86.2773289,48.5309084 C87.2383289,47.7329084 88.5033289,47.3149084 89.8333289,47.4569084 C91.1743289,47.5999084 92.3153289,48.2749084 93.0753289,49.2629084 C94.0733289,48.5129084 95.3663289,48.1609084 96.6883289,48.3799084 C98.0193289,48.5979084 99.1213289,49.3399084 99.8343289,50.3659084 C100.880329,49.6819084 102.182329,49.3969084 103.493329,49.6919084 C104.815329,49.9949084 105.880329,50.8029084 106.526329,51.8779084 C107.609329,51.2509084 108.941329,51.0509084 110.233329,51.4309084 C111.536329,51.8109084 112.544329,52.6949084 113.123329,53.8169084 C114.255329,53.2559084 115.596329,53.1519084 116.869329,53.6169084 C118.143329,54.0919084 119.103329,55.0529084 119.598329,56.2129084 C120.766329,55.7469084 122.125329,55.7369084 123.361329,56.3179084 C124.607329,56.8869084 125.482329,57.9429084 125.880329,59.1499084 C127.107329,58.7789084 128.467329,58.8929084 129.654329,59.5879084 C130.853329,60.2809084 131.642329,61.4219084 131.907329,62.6769084 C133.182329,62.4289084 134.550329,62.6959084 135.662329,63.5319084 C136.794329,64.3689084 137.449329,65.6139084 137.564329,66.9169084 C138.875329,66.8309084 140.216329,67.2869084 141.224329,68.2849084 L141.232329,68.2849084 C142.250329,69.3019084 142.716329,70.6619084 142.621329,72.0019084 C143.971329,72.1259084 145.244329,72.8289084 146.081329,74.0269084 C146.927329,75.2439084 147.116329,76.7169084 146.746329,78.0479084 C148.067329,78.4659084 149.199329,79.4639084 149.741329,80.8619084 C150.282329,82.2879084 150.103329,83.8089084 149.380329,85.0259084 C150.577329,85.7959084 151.414329,87.0979084 151.537329,88.6279084 C151.566329,89.0079084 151.557329,89.3789084 151.499329,89.7399084 C151.585329,90.0919084 151.632329,90.4629084 151.632329,90.8429084 C151.632329,92.3829084 150.900329,93.7519084 149.760329,94.6169084 C150.587329,95.7769084 150.892329,97.2979084 150.443329,98.7619084 C150.007329,100.206908 148.942329,101.299908 147.641329,101.812908 C148.106329,103.115908 148.011329,104.616908 147.231329,105.900908 C146.461329,107.155908 145.216329,107.925908 143.865329,108.124908 C144.037329,109.465908 143.628329,110.862908 142.649329,111.936908 C141.680329,112.982908 140.349329,113.495908 139.027329,113.466908 C138.961329,114.778908 138.353329,116.052908 137.249329,116.937908 C136.157329,117.811908 134.787329,118.125908 133.514329,117.916908 C133.276329,119.189908 132.525329,120.359908 131.346329,121.090908 C130.168329,121.822908 128.799329,121.975908 127.572329,121.632908 C127.202329,122.859908 126.347329,123.923908 125.120329,124.531908 C123.894329,125.140908 122.525329,125.169908 121.347329,124.722908 C120.871329,125.891908 119.939329,126.880908 118.675329,127.383908 C117.400329,127.878908 116.061329,127.792908 114.920329,127.260908 C114.358329,128.391908 113.360329,129.295908 112.068329,129.703908 C110.775329,130.102908 109.444329,129.931908 108.352329,129.323908 C107.724329,130.406908 106.669329,131.243908 105.357329,131.557908 C104.045329,131.880908 102.733329,131.614908 101.678329,130.948908 C100.984329,131.984908 99.8913289,132.745908 98.5693289,132.983908 L98.5693289,132.992908 C97.2483289,133.230908 95.9463289,132.887908 94.9393289,132.165908 C94.1883289,133.153908 93.0573289,133.857908 91.7263289,134.019908 C90.3943289,134.180908 89.1203289,133.772908 88.1513289,132.992908 C87.3533289,133.943908 86.1833289,134.579908 84.8433289,134.674908 C83.5023289,134.760908 82.2573289,134.295908 81.3353289,133.458908 C80.4883289,134.361908 79.2913289,134.941908 77.9513289,134.960908 L77.8753289,134.960908 C76.5633289,134.960908 75.3753289,134.427908 74.5103289,133.572908 L74.5103289,133.572908 Z" id="Fill-65" fill="#10121F"></path>
                <path d="M146.876329,90.8449084 C146.876329,112.594908 115.032329,130.226908 75.7503289,130.226908 C36.4693289,130.226908 4.62432888,112.594908 4.62432888,90.8449084 C4.62432888,69.0949084 36.4693289,51.4629084 75.7503289,51.4629084 C115.032329,51.4629084 146.876329,69.0949084 146.876329,90.8449084" id="Fill-64" fill="#10121F"></path>
                <path d="M109.897329,74.8009084 C109.897329,74.8009084 120.013329,68.2679084 120.013329,58.3629084 C120.013329,48.4579084 110.529329,54.5699084 110.529329,54.5699084 L109.897329,74.8009084" id="Fill-66" fill="#7A3423"></path>
                <path d="M28.0173289,139.077908 C28.0173289,139.077908 34.0243289,128.645908 43.5073289,125.484908 C52.9903289,122.323908 59.1023289,124.114908 59.1023289,124.114908 L91.5573289,124.535908 C91.5573289,124.535908 101.672329,122.323908 108.626329,124.852908 C115.581329,127.381908 124.854329,139.920908 124.854329,139.920908 C124.854329,139.920908 82.7053289,149.825908 28.0173289,139.077908" id="Fill-67" fill="#EEA331"></path>
                <path d="M65.3183289,101.775908 C65.3183289,101.775908 72.3793289,122.428908 58.6803289,124.114908 C65.3183289,132.649908 74.6963289,137.812908 74.6963289,137.812908 C74.6963289,137.812908 86.4983289,133.703908 91.5573289,124.535908 C91.5573289,124.535908 84.9183289,123.271908 83.3373289,119.794908 C81.7573289,116.317908 83.0223289,100.827908 83.0223289,100.827908 L65.3183289,101.775908" id="Fill-68" fill="#7A3423"></path>
                <path d="M41.8203289,74.8009084 C41.8203289,74.8009084 31.7053289,68.2679084 31.7053289,58.3629084 C31.7053289,48.4579084 41.1893289,54.5699084 41.1893289,54.5699084 L41.8203289,74.8009084" id="Fill-69" fill="#7A3423"></path>
                <path d="M43.5073289,81.3339084 L43.0323289,81.3339084 C43.0333289,84.8369084 42.5163289,88.0079084 41.7023289,90.2629084 C41.2963289,91.3899084 40.8143289,92.2859084 40.3133289,92.8709084 C39.8073289,93.4609084 39.3213289,93.7159084 38.8703289,93.7139084 C38.4193289,93.7159084 37.9333289,93.4609084 37.4273289,92.8709084 C36.6743289,91.9929084 35.9733289,90.4159084 35.4873289,88.4089084 C34.9983289,86.4009084 34.7093289,83.9619084 34.7093289,81.3339084 C34.7083289,77.8309084 35.2243289,74.6599084 36.0393289,72.4049084 C36.4443289,71.2779084 36.9273289,70.3819084 37.4273289,69.7969084 C37.9333289,69.2069084 38.4193289,68.9529084 38.8703289,68.9539084 C39.3213289,68.9529084 39.8073289,69.2069084 40.3133289,69.7969084 C41.0673289,70.6749084 41.7673289,72.2519084 42.2533289,74.2589084 C42.7433289,76.2669084 43.0323289,78.7069084 43.0323289,81.3339084 L43.9823289,81.3339084 C43.9813289,77.7369084 43.4593289,74.4799084 42.5963289,72.0829084 C42.1623289,70.8829084 41.6453289,69.8959084 41.0373289,69.1799084 C40.4333289,68.4699084 39.6993289,68.0049084 38.8703289,68.0029084 C38.0413289,68.0049084 37.3073289,68.4699084 36.7043289,69.1799084 C35.7933289,70.2539084 35.0773289,71.9379084 34.5643289,74.0339084 C34.0533289,76.1289084 33.7583289,78.6369084 33.7583289,81.3339084 C33.7593289,84.9309084 34.2813289,88.1879084 35.1443289,90.5859084 C35.5783289,91.7849084 36.0953289,92.7719084 36.7043289,93.4879084 C37.3073289,94.1979084 38.0413289,94.6639084 38.8703289,94.6649084 C39.6993289,94.6639084 40.4333289,94.1979084 41.0373289,93.4879084 C41.9473289,92.4139084 42.6633289,90.7299084 43.1773289,88.6339084 C43.6873289,86.5389084 43.9823289,84.0309084 43.9823289,81.3339084 L43.5073289,81.3339084" id="Fill-70" fill="#EEA331"></path>
                <path d="M116.846329,81.3339084 L116.370329,81.3339084 C116.371329,84.8369084 115.855329,88.0079084 115.040329,90.2629084 C114.635329,91.3899084 114.153329,92.2859084 113.652329,92.8709084 C113.146329,93.4609084 112.660329,93.7159084 112.209329,93.7139084 C111.758329,93.7159084 111.272329,93.4609084 110.766329,92.8709084 C110.012329,91.9929084 109.312329,90.4159084 108.826329,88.4089084 C108.337329,86.4009084 108.047329,83.9619084 108.048329,81.3339084 C108.047329,77.8309084 108.563329,74.6599084 109.378329,72.4049084 C109.783329,71.2779084 110.265329,70.3819084 110.766329,69.7969084 C111.272329,69.2069084 111.758329,68.9529084 112.209329,68.9539084 C112.660329,68.9529084 113.146329,69.2069084 113.652329,69.7969084 C114.406329,70.6749084 115.106329,72.2519084 115.592329,74.2589084 C116.082329,76.2669084 116.371329,78.7069084 116.370329,81.3339084 L117.321329,81.3339084 C117.320329,77.7369084 116.798329,74.4799084 115.935329,72.0829084 C115.501329,70.8829084 114.984329,69.8959084 114.375329,69.1799084 C113.772329,68.4699084 113.038329,68.0049084 112.209329,68.0029084 C111.380329,68.0049084 110.646329,68.4699084 110.043329,69.1799084 C109.132329,70.2539084 108.416329,71.9379084 107.902329,74.0339084 C107.392329,76.1289084 107.097329,78.6369084 107.097329,81.3339084 C107.098329,84.9309084 107.620329,88.1879084 108.483329,90.5859084 C108.917329,91.7849084 109.434329,92.7719084 110.043329,93.4879084 C110.646329,94.1979084 111.380329,94.6639084 112.209329,94.6649084 C113.038329,94.6639084 113.772329,94.1979084 114.375329,93.4879084 C115.286329,92.4139084 116.002329,90.7299084 116.516329,88.6339084 C117.026329,86.5389084 117.321329,84.0309084 117.321329,81.3339084 L116.846329,81.3339084" id="Fill-71" fill="#EEA331"></path>
                <path d="M112.631329,44.3479084 C112.631329,21.8269084 95.9783289,3.56890838 75.4353289,3.56890838 C54.8923289,3.56890838 38.2383289,21.8269084 38.2383289,44.3479084 C38.2383289,47.4319084 38.5613289,50.4309084 39.1523289,53.3189084 C38.5613289,58.1269084 38.2383289,63.4029084 38.2383289,69.2159084 C38.2383289,87.5519084 62.8943289,103.061908 72.0583289,108.193908 C74.1593289,109.369908 76.7093289,109.369908 78.8113289,108.193908 C87.9753289,103.061908 112.631329,87.5519084 112.631329,69.2159084 C112.631329,63.1809084 112.344329,57.7599084 111.810329,52.8749084 C112.344329,50.1249084 112.631329,47.2739084 112.631329,44.3479084" id="Fill-72" fill="#9B4D34"></path>
                <path d="M71.1143289,80.4909084 C71.1143289,80.4909084 75.1183289,83.8629084 79.9653289,80.0699084 C78.7013289,84.9169084 73.4333289,85.5489084 71.1143289,80.4909084" id="Fill-73" fill="#7A3423"></path>
                <path d="M75.4353289,3.56890838 C54.8923289,3.56890838 38.2383289,20.8029084 38.2383289,42.0609084 C38.2383289,44.9709084 38.5613289,47.8019084 39.1523289,50.5279084 C39.1523289,50.5279084 46.3523289,50.9129084 47.6163289,39.5739084 C48.8813289,28.2359084 58.0483289,17.1959084 80.4923289,18.3889084 C102.937329,19.5829084 101.717329,50.7979084 111.810329,50.1099084 C112.344329,47.5129084 112.631329,44.8219084 112.631329,42.0609084 C112.631329,20.8029084 95.9783289,3.56890838 75.4353289,3.56890838" id="Fill-74" fill="#10121F"></path>
                <path d="M39.1483289,54.2159084 C38.1783289,54.2159084 37.2273289,53.8269084 36.5433289,53.1419084 C35.8493289,52.4479084 35.4583289,51.4969084 35.4583289,50.5279084 C35.4583289,50.2899084 35.4783289,50.0429084 35.5253289,49.8059084 C35.5723289,49.5679084 35.6493289,49.3399084 35.7443289,49.1119084 C35.8303289,48.8929084 35.9443289,48.6749084 36.0773289,48.4749084 C36.2093289,48.2749084 36.3713289,48.0849084 36.5433289,47.9139084 C37.3983289,47.0579084 38.6723289,46.6679084 39.8703289,46.9059084 C40.1083289,46.9539084 40.3453289,47.0199084 40.5643289,47.1149084 C40.7923289,47.2109084 41.0013289,47.3249084 41.2003289,47.4569084 C41.3993289,47.5909084 41.5903289,47.7429084 41.7623289,47.9139084 C41.9333289,48.0849084 42.0853289,48.2749084 42.2273289,48.4749084 C42.3603289,48.6749084 42.4753289,48.8929084 42.5613289,49.1119084 C42.6553289,49.3399084 42.7313289,49.5679084 42.7783289,49.8059084 C42.8253289,50.0429084 42.8453289,50.2899084 42.8453289,50.5279084 C42.8453289,51.4969084 42.4553289,52.4479084 41.7623289,53.1419084 C41.0763289,53.8269084 40.1263289,54.2159084 39.1483289,54.2159084" id="Fill-75" fill="#10121F"></path>
                <path d="M42.5313289,50.4139084 C40.9253289,49.1589084 40.6493289,46.8299084 41.9133289,45.2229084 C42.5693289,44.3869084 43.5293289,43.9119084 44.5183289,43.8259084 C43.8243289,43.0089084 43.4913289,41.8869084 43.7103289,40.7459084 C43.9763289,39.3199084 45.0413289,38.2369084 46.3533289,37.8749084 C45.1463289,36.9529084 44.5943289,35.3369084 45.0793289,33.8159084 C45.5833289,32.2479084 47.0273289,31.2499084 48.5873289,31.2499084 C47.6463289,29.9949084 47.5693289,28.2369084 48.5203289,26.8959084 C49.4613289,25.5459084 51.1443289,25.0329084 52.6363289,25.4979084 C52.1233289,24.0249084 52.5693289,22.3329084 53.8723289,21.3349084 L53.8823289,21.3349084 C55.1653289,20.3559084 56.8963289,20.3459084 58.1793289,21.2009084 C58.0933289,19.6809084 58.9583289,18.1979084 60.4503289,17.5799084 C61.9143289,16.9719084 63.5503289,17.3809084 64.5663289,18.4829084 C64.8233289,17.0189084 65.9543289,15.7929084 67.5033289,15.4879084 C69.0243289,15.1939084 70.5183289,15.8789084 71.3063289,17.1049084 C71.8013289,15.7349084 73.0833289,14.7279084 74.6243289,14.6609084 C76.1543289,14.5949084 77.5143289,15.4689084 78.1323289,16.7719084 C78.7973289,15.4689084 80.2133289,14.6329084 81.7533289,14.7759084 C83.3993289,14.9279084 84.6813289,16.1259084 85.0243289,17.6469084 C86.0603289,16.4669084 87.7903289,16.0399084 89.3113289,16.7149084 C90.8223289,17.3989084 91.6583289,18.9769084 91.4593289,20.5459084 C92.8373289,19.7849084 94.5963289,19.9569084 95.7943289,21.0879084 C96.9723289,22.1999084 97.2583289,23.9019084 96.6313289,25.2979084 C98.0953289,24.9659084 99.6823289,25.5459084 100.547329,26.8769084 C101.393329,28.1789084 101.316329,29.8139084 100.481329,31.0119084 C101.915329,30.9449084 103.323329,31.7249084 103.988329,33.1029084 C104.635329,34.4439084 104.397329,35.9839084 103.513329,37.0579084 C104.882329,37.0959084 106.184329,37.9039084 106.782329,39.2349084 C107.344329,40.4989084 107.144329,41.9149084 106.374329,42.9519084 C107.601329,42.9329084 108.808329,43.5119084 109.529329,44.6059084 C110.661329,46.3069084 110.195329,48.5979084 108.493329,49.7299084 C106.792329,50.8509084 104.502329,50.3849084 103.380329,48.6839084 C102.496329,47.3529084 102.591329,45.6609084 103.484329,44.4439084 C102.049329,44.4729084 100.671329,43.6549084 100.043329,42.2669084 C99.4443289,40.9359084 99.6913289,39.4439084 100.566329,38.3979084 C99.2263289,38.3599084 97.9513289,37.5989084 97.3343289,36.3069084 C96.7343289,35.0619084 96.8973289,33.6449084 97.6293289,32.5899084 C96.3643289,32.6469084 95.1003289,32.0579084 94.3583289,30.9169084 C93.6453289,29.8239084 93.5883289,28.4929084 94.0823289,27.3809084 C92.9233289,27.6469084 91.6583289,27.3429084 90.7283289,26.4679084 C89.8333289,25.6219084 89.4533289,24.4429084 89.5963289,23.3219084 C88.6083289,23.8629084 87.3913289,23.9589084 86.2883289,23.4639084 C85.1863289,22.9699084 84.4353289,21.9899084 84.1883289,20.8979084 C83.4373289,21.7529084 82.2953289,22.2469084 81.0783289,22.1329084 C79.7293289,22.0089084 78.6163289,21.1729084 78.0743289,20.0319084 C77.4953289,21.1829084 76.3253289,21.9809084 74.9573289,22.0469084 C73.5973289,22.1049084 72.3813289,21.4209084 71.6873289,20.3559084 C71.2593289,21.5439084 70.2423289,22.4759084 68.9203289,22.7419084 C67.6173289,22.9979084 66.3443289,22.5329084 65.5083289,21.6299084 C65.2893289,22.8369084 64.4903289,23.9109084 63.2833289,24.4049084 C62.0953289,24.8999084 60.8023289,24.7289084 59.8143289,24.0629084 C59.8713289,25.2409084 59.3763289,26.4299084 58.3683289,27.1999084 C57.3803289,27.9609084 56.1253289,28.1409084 55.0223289,27.7989084 C55.4023289,28.8829084 55.2703289,30.1369084 54.5573289,31.1539084 C53.8443289,32.1719084 52.7033289,32.7139084 51.5533289,32.7139084 C52.2463289,33.6449084 52.4933289,34.8809084 52.1133289,36.0689084 C51.7243289,37.3049084 50.7443289,38.1799084 49.5753289,38.5029084 C50.6493289,39.3299084 51.2393289,40.7079084 50.9633289,42.1339084 C50.6493289,43.7979084 49.2523289,44.9949084 47.6363289,45.1289084 C48.7483289,46.4309084 48.8243289,48.3889084 47.7223289,49.7869084 C46.9903289,50.7179084 45.9063289,51.2029084 44.8143289,51.2029084 C44.0143289,51.2029084 43.2163289,50.9459084 42.5313289,50.4139084" id="Fill-76" fill="#10121F"></path>
                <path d="M111.812329,53.8079084 C110.832329,53.8079084 109.882329,53.4079084 109.197329,52.7239084 C109.026329,52.5529084 108.874329,52.3619084 108.741329,52.1629084 C108.608329,51.9639084 108.493329,51.7449084 108.399329,51.5259084 C108.304329,51.2979084 108.237329,51.0699084 108.191329,50.8319084 C108.142329,50.5949084 108.114329,50.3469084 108.114329,50.1099084 C108.114329,49.1309084 108.513329,48.1799084 109.197329,47.4949084 C110.053329,46.6399084 111.327329,46.2499084 112.533329,46.4879084 C112.762329,46.5349084 113.000329,46.6019084 113.219329,46.6969084 C113.446329,46.7919084 113.656329,46.9059084 113.856329,47.0389084 C114.065329,47.1729084 114.255329,47.3249084 114.426329,47.4949084 C115.109329,48.1799084 115.500329,49.1399084 115.500329,50.1099084 C115.500329,51.0789084 115.109329,52.0299084 114.426329,52.7239084 C114.255329,52.8949084 114.065329,53.0469084 113.856329,53.1799084 C113.656329,53.3129084 113.446329,53.4269084 113.219329,53.5219084 C113.000329,53.6079084 112.762329,53.6839084 112.533329,53.7319084 C112.296329,53.7789084 112.049329,53.8079084 111.812329,53.8079084" id="Fill-98" fill="#10121F"></path>
                <path d="M34.5943289,44.2439084 C34.5273289,42.7609084 35.3353289,41.4309084 36.5813289,40.7839084 C35.3823289,40.0619084 34.6503289,38.6929084 34.8133289,37.2099084 C34.9743289,35.7269084 35.9913289,34.5479084 37.3213289,34.1109084 C36.2583289,33.2079084 35.7543289,31.7249084 36.1523289,30.2889084 C36.5623289,28.8539084 37.7593289,27.8559084 39.1383289,27.6369084 C38.2343289,26.5729084 37.9873289,25.0329084 38.6143289,23.6829084 C39.2523289,22.3329084 40.6023289,21.5439084 41.9993289,21.5629084 C41.2763289,20.3559084 41.2863289,18.7969084 42.1323289,17.5699084 C42.9873289,16.3439084 44.4413289,15.7929084 45.8203289,16.0309084 C45.3163289,14.7279084 45.5833289,13.1879084 46.6283289,12.1229084 C47.6743289,11.0499084 49.2043289,10.7549084 50.5263289,11.2299084 C50.2503289,9.85090838 50.7743289,8.37790838 51.9813289,7.50390838 L51.9813289,7.49390838 C53.1973289,6.61890838 54.7573289,6.59090838 55.9833289,7.28490838 C55.9443289,5.87790838 56.7143289,4.50890838 58.0653289,3.86290838 C59.4143289,3.20690838 60.9633289,3.44390838 62.0483289,4.34690838 C62.2573289,2.95990838 63.2643289,1.74290838 64.7093289,1.34390838 C66.1533289,0.93490838 67.6373289,1.44790838 68.5403289,2.53190838 C68.9963289,1.20090838 70.1933289,0.19290838 71.6873289,0.0509083798 C73.1793289,-0.0920916202 74.5483289,0.67790838 75.2423289,1.89490838 C75.9263289,0.66890838 77.2853289,-0.11109162 78.7873289,0.0129083798 C80.2803289,0.13590838 81.4863289,1.13390838 81.9623289,2.46490838 C82.8573289,1.37190838 84.3293289,0.84890838 85.7843289,1.23890838 C87.2293289,1.62890838 88.2463289,2.82690838 88.4653289,4.21390838 C89.5393289,3.30190838 91.0883289,3.04490838 92.4393289,3.69190838 C93.7973289,4.32790838 94.5863289,5.68790838 94.5583289,7.09490838 C95.7743289,6.38190838 97.3443289,6.40090838 98.5613289,7.26590838 C99.7763289,8.13090838 100.318329,9.60490838 100.053329,10.9829084 C101.364329,10.4879084 102.904329,10.7829084 103.960329,11.8389084 C105.015329,12.8939084 105.290329,14.4339084 104.796329,15.7449084 C106.175329,15.4879084 107.648329,16.0309084 108.504329,17.2469084 C109.368329,18.4639084 109.388329,20.0319084 108.675329,21.2389084 C110.081329,21.2109084 111.441329,21.9899084 112.087329,23.3309084 C112.733329,24.6809084 112.486329,26.2209084 111.593329,27.3049084 C112.982329,27.5049084 114.188329,28.4929084 114.607329,29.9279084 C115.024329,31.3539084 114.530329,32.8369084 113.475329,33.7499084 C114.807329,34.1779084 115.833329,35.3469084 116.013329,36.8299084 C116.184329,38.3129084 115.462329,39.6909084 114.274329,40.4229084 C115.520329,41.0499084 116.347329,42.3719084 116.289329,43.8639084 C116.203329,45.8989084 114.483329,47.4859084 112.448329,47.3999084 C110.405329,47.3149084 108.816329,45.5939084 108.903329,43.5599084 C108.960329,42.2859084 109.654329,41.1829084 110.661329,40.5559084 C109.606329,40.0239084 108.827329,38.9779084 108.675329,37.7139084 C108.523329,36.4399084 109.036329,35.2519084 109.930329,34.4719084 C108.798329,34.1109084 107.866329,33.2079084 107.515329,31.9909084 C107.153329,30.7649084 107.458329,29.5009084 108.218329,28.5879084 C107.049329,28.4169084 105.975329,27.6849084 105.424329,26.5349084 C104.872329,25.3839084 104.967329,24.0909084 105.566329,23.0739084 C104.377329,23.0929084 103.209329,22.5519084 102.467329,21.5059084 C101.735329,20.4699084 101.612329,19.1869084 102.029329,18.0739084 C100.870329,18.2929084 99.6243289,17.9499084 98.7223289,17.0469084 C97.8283289,16.1539084 97.4963289,14.8989084 97.7143289,13.7389084 C96.6113289,14.1579084 95.3283289,14.0249084 94.2923289,13.2929084 C93.2563289,12.5609084 92.7143289,11.3909084 92.7333289,10.2129084 C91.7163289,10.8119084 90.4323289,10.9069084 89.2923289,10.3649084 C88.1413289,9.82290838 87.4093289,8.77690838 87.2193289,7.61790838 C86.3263289,8.37790838 85.0803289,8.70090838 83.8633289,8.36790838 C82.6383289,8.04490838 81.7253289,7.14190838 81.3353289,6.02990838 C80.5943289,6.94290838 79.4243289,7.48490838 78.1703289,7.37990838 C76.9053289,7.27490838 75.8503289,6.54290838 75.2613289,5.52590838 C74.6913289,6.55290838 73.6353289,7.28490838 72.3813289,7.40790838 C71.1163289,7.52290838 69.9463289,6.99990838 69.1953289,6.09690838 C68.8163289,7.20890838 67.9133289,8.11190838 66.6953289,8.45390838 C65.4793289,8.79690838 64.2333289,8.48290838 63.3303289,7.73190838 C63.1503289,8.89090838 62.4273289,9.95590838 61.2863289,10.5069084 C60.1473289,11.0589084 58.8623289,10.9729084 57.8363289,10.3939084 C57.8743289,11.5719084 57.3423289,12.7409084 56.3163289,13.4829084 C55.2883289,14.2239084 54.0063289,14.3669084 52.8943289,13.9669084 C53.1213289,15.1279084 52.7983289,16.3729084 51.9143289,17.2849084 C51.0203289,18.1879084 49.7843289,18.5499084 48.6153289,18.3399084 C49.0433289,19.4429084 48.9293289,20.7259084 48.2063289,21.7719084 C47.4843289,22.8179084 46.3153289,23.3789084 45.1363289,23.3689084 C45.7443289,24.3859084 45.8503289,25.6699084 45.3073289,26.8199084 C44.7653289,27.9799084 43.7003289,28.7209084 42.5313289,28.9019084 C43.3013289,29.8049084 43.6143289,31.0689084 43.2743289,32.2959084 C42.9213289,33.5219084 41.9993289,34.4249084 40.8773289,34.8049084 C41.7803289,35.5659084 42.2943289,36.7539084 42.1503289,38.0279084 C42.0183289,39.2919084 41.2483289,40.3379084 40.1933289,40.8889084 C41.2103289,41.5069084 41.9133289,42.5999084 41.9803289,43.8739084 C42.0743289,45.9079084 40.5163289,47.6479084 38.4723289,47.7519084 L38.2823289,47.7519084 C36.3333289,47.7519084 34.6983289,46.2219084 34.5943289,44.2439084" id="Fill-78" fill="#10121F"></path>
                <path d="M63.5333289,45.5599084 C62.7143289,45.0499084 61.7453289,45.7609084 60.5273289,46.8659084 C59.3193289,47.9889084 57.7543289,49.4989084 55.9383289,50.8219084 C54.1263289,52.1339084 52.0793289,53.2259084 50.4183289,53.8379084 C49.5963289,54.1629084 48.8773289,54.3779084 48.3703289,54.5139084 C47.8603289,54.6519084 47.5663289,54.7309084 47.5663289,54.7309084 C47.5663289,54.7309084 47.8733289,54.7819084 48.4013289,54.8699084 C48.6703289,54.9199084 48.9973289,54.9529084 49.3763289,54.9809084 C49.7573289,55.0169084 50.1883289,55.0439084 50.6603289,55.0369084 C51.6103289,55.0599084 52.7193289,54.9539084 53.9133289,54.7509084 C55.0993289,54.5249084 56.3523289,54.1549084 57.5633289,53.6509084 C58.7613289,53.1259084 59.9133289,52.4659084 60.9013289,51.7169084 C61.8743289,50.9509084 62.7113289,50.1329084 63.2713289,49.3039084 C64.4213289,47.6539084 64.5623289,46.1929084 63.5333289,45.5599084" id="Fill-79" fill="#10121F"></path>
                <path d="M85.1513289,46.7149084 C84.5493289,47.4389084 85.1823289,48.6099084 86.5803289,49.9309084 C87.9763289,51.2399084 90.1853289,52.7039084 92.6793289,53.6659084 C95.1703289,54.6569084 97.8843289,54.9939084 99.8543289,54.8409084 C100.842329,54.7719084 101.645329,54.6099084 102.192329,54.4629084 C102.740329,54.3199084 103.041329,54.2099084 103.041329,54.2099084 C103.041329,54.2099084 102.715329,54.1859084 102.162329,54.1069084 C101.610329,54.0329084 100.835329,53.8849084 99.9533289,53.6209084 C98.1803289,53.1019084 96.0363289,52.0489084 94.1243289,50.7409084 C92.1913289,49.4489084 90.3993289,47.9579084 88.8343289,47.0339084 C87.2753289,46.1059084 85.9413289,45.7679084 85.1513289,46.7149084" id="Fill-80" fill="#10121F"></path>
                <path d="M66.7803289,97.4789084 C66.7803289,97.4789084 63.6603289,88.4019084 66.7803289,86.6989084 C69.9013289,84.9969084 72.4543289,88.6849084 76.4263289,88.1179084 C80.3983289,87.5499084 81.5323289,84.1459084 84.6523289,86.6989084 C87.7743289,89.2529084 85.4583289,96.4149084 84.9373289,98.8979084 C83.0493289,107.890908 69.4143289,112.214908 66.7803289,97.4789084" id="Fill-81" fill="#7A3423"></path>
                <path d="M76.6243289,103.253908 C73.5553289,103.253908 69.7733289,101.297908 68.7233289,97.0039084 L68.6723289,96.8299084 C67.3463289,92.9559084 67.0513289,88.9859084 67.7393289,88.4539084 C68.0023289,88.3109084 68.2413289,88.2469084 68.5143289,88.2469084 C69.1403289,88.2469084 69.9303289,88.5809084 70.8453289,88.9679084 C72.1173289,89.5069084 73.7023289,90.1779084 75.5823289,90.1779084 C75.9583289,90.1779084 76.3373289,90.1509084 76.7093289,90.0979084 C78.6283289,89.8229084 80.0233289,89.0159084 81.0403289,88.4269084 C81.6073289,88.0999084 82.1913289,87.7609084 82.4873289,87.7609084 C82.6823289,87.7609084 83.0093289,87.9379084 83.3873289,88.2469084 C84.6983289,89.3199084 84.6033289,92.6079084 83.1053289,98.0189084 L83.0083289,98.3699084 C82.1703289,101.427908 79.7843289,103.253908 76.6243289,103.253908" id="Fill-82" fill="#751E21"></path>
                <path d="M108.327329,82.8089084 C107.269329,75.8709084 104.769329,67.5939084 99.0113289,62.0009084 C96.3513289,60.3379084 88.3693289,59.0079084 85.3763289,61.3359084 C85.3763289,61.3359084 93.3673289,82.6559084 94.5653289,97.6209084 C99.7473289,93.4469084 104.866329,88.4099084 108.327329,82.8089084" id="Fill-83" fill="#AEC4DC"></path>
                <path d="M52.7873289,60.6709084 C46.3403289,67.6549084 43.7533289,76.4689084 42.7363289,83.1189084 C46.4753289,89.0409084 52.0463289,94.3239084 57.5453289,98.6059084 C58.4183289,80.4659084 64.0943289,61.3359084 64.0943289,61.3359084 C61.4343289,57.3449084 52.7873289,59.0079084 52.7873289,60.6709084" id="Fill-84" fill="#AEC4DC"></path>
                <path d="M81.6403289,66.1599084 C81.6403289,66.1599084 84.3793289,61.0029084 89.4783289,61.0029084 C94.5773289,61.0029084 99.2333289,64.9939084 102.779329,62.7769084 C106.326329,60.5599084 105.875329,57.5199084 105.875329,57.5199084 C105.875329,57.5199084 104.691329,59.4109084 100.965329,59.6529084 C97.2373289,59.8949084 93.5983289,56.7239084 89.0343289,58.3429084 C82.1623289,60.7809084 81.6403289,66.1599084 81.6403289,66.1599084" id="Fill-85" fill="#0A0B09"></path>
                <path d="M67.7233289,66.1599084 C67.7233289,66.1599084 64.9833289,61.0029084 59.8853289,61.0029084 C54.7853289,61.0029084 50.1303289,64.9939084 46.5833289,62.7769084 C43.0363289,60.5599084 43.4873289,57.5199084 43.4873289,57.5199084 C43.4873289,57.5199084 44.6713289,59.4109084 48.3983289,59.6529084 C52.1253289,59.8949084 55.7653289,56.7239084 60.3283289,58.3429084 C67.2003289,60.7809084 67.7233289,66.1599084 67.7233289,66.1599084" id="Fill-86" fill="#0A0B09"></path>
                <path d="M75.7333289,99.5779084 C73.7783289,99.5779084 71.9203289,99.7769084 70.2313289,100.132908 C71.8963289,102.255908 74.4393289,103.253908 76.6243289,103.253908 C79.0243289,103.253908 80.9743289,102.195908 82.1423289,100.347908 C80.2213289,99.8589084 78.0453289,99.5779084 75.7333289,99.5779084" id="Fill-87" fill="#C52E2C"></path>
                <path d="M84.2983289,91.4749084 C84.3403289,89.8619084 84.0383289,88.7799084 83.3873289,88.2469084 C83.0093289,87.9379084 82.6823289,87.7609084 82.4873289,87.7609084 C82.1913289,87.7609084 81.6073289,88.0999084 81.0403289,88.4269084 C80.0233289,89.0159084 78.6283289,89.8229084 76.7093289,90.0979084 C76.3373289,90.1509084 75.9583289,90.1779084 75.5823289,90.1779084 C73.7023289,90.1779084 72.1173289,89.5069084 70.8453289,88.9679084 C69.9303289,88.5809084 69.1403289,88.2469084 68.5143289,88.2469084 C68.2413289,88.2469084 68.0023289,88.3109084 67.7393289,88.4539084 C67.3813289,88.7309084 67.2913289,89.9449084 67.4733289,91.5879084 C69.7883289,92.4259084 72.6383289,92.9269084 75.7333289,92.9269084 C78.9653289,92.9269084 81.9323289,92.3819084 84.2983289,91.4749084" id="Fill-88" fill="#FFFFFE"></path>
            </g>
        </g>
    </g>
</svg>