<svg xmlns="http://www.w3.org/2000/svg" viewBox="0 0 500 500"><g id="freepik--background-simple--inject-3"><path d="M53.66,111.56l1.48-4.24c12.45-35.74,43.1-62.23,80.2-67.73a97.84,97.84,0,0,1,14.42-1.06c34.8,0,69.13,19,88,48.68,11.11,17.45,17.74,38.85,34.35,51,21.61,15.86,51.34,10.16,77.19,3.79s55.62-12,77.17,4c13.49,10,20.68,26.77,23.32,43.44,7,44.15-15.09,89.68-49.63,117.34S320.44,345.9,276.28,346.4c-61.86.7-125.28-20.09-170-63.57S38.22,172.09,53.66,111.56Z" style="fill:#ebebeb"></path></g><g id="freepik--Floor--inject-3"><path d="M473.22,458.38c0,.15-100,.26-223.21.26s-223.23-.11-223.23-.26,99.92-.26,223.23-.26S473.22,458.24,473.22,458.38Z" style="fill:#263238"></path></g><g id="freepik--Manual--inject-3"><path d="M118.41,64.57H402.64A10.76,10.76,0,0,1,413.4,75.32V446.92a10.76,10.76,0,0,1-10.76,10.76H118.41a0,0,0,0,1,0,0V64.57A0,0,0,0,1,118.41,64.57Z" style="fill:#FFB35E"></path><g style="opacity:0.30000000000000004"><path d="M118.41,64.57H402.64A10.76,10.76,0,0,1,413.4,75.32V446.92a10.76,10.76,0,0,1-10.76,10.76H118.41a0,0,0,0,1,0,0V64.57A0,0,0,0,1,118.41,64.57Z"></path></g><rect x="247.53" y="76.74" width="157.7" height="380.93" style="fill:#e0e0e0"></rect><path d="M117.18,61.47H381.34a10.76,10.76,0,0,1,10.76,10.76V446.92a10.76,10.76,0,0,1-10.76,10.76H117.18a0,0,0,0,1,0,0V61.47A0,0,0,0,1,117.18,61.47Z" style="fill:#FFB35E"></path><path d="M145.44,458.39c-.15,0-.26-88.86-.26-198.45s.11-198.47.26-198.47.26,88.84.26,198.47S145.58,458.39,145.44,458.39Z" style="fill:#263238"></path><path d="M152.86,458.39c-.14,0-.26-88.86-.26-198.45s.12-198.47.26-198.47.26,88.84.26,198.47S153,458.39,152.86,458.39Z" style="fill:#263238"></path><path d="M218.47,208.56l-.07-12.41-6,10.1h-2.95l-6-9.77v12.08h-6.12V185.14h5.45L211,198.66l8-13.52h5.45l.07,23.42Z" style="fill:#fff"></path><path d="M244.94,204H235l-1.84,4.55h-6.76l10.34-23.42h6.53l10.37,23.42h-6.89ZM243,199.13l-3-7.5-3,7.5Z" style="fill:#fff"></path><path d="M277.84,185.14v23.42h-5.46L262,196.08v12.48h-6.49V185.14H261l10.34,12.48V185.14Z" style="fill:#fff"></path><path d="M282.32,198.12v-13H289v12.78c0,4,1.67,5.62,4.45,5.62s4.41-1.6,4.41-5.62V185.14h6.53v13c0,7-4.08,10.91-11,10.91S282.32,205.12,282.32,198.12Z" style="fill:#fff"></path><path d="M324,204h-9.91l-1.84,4.55h-6.76l10.34-23.42h6.53l10.37,23.42h-6.89Zm-1.94-4.88-3-7.5-3,7.5Z" style="fill:#fff"></path><path d="M334.63,185.14h6.62v18.17h11.18v5.25h-17.8Z" style="fill:#fff"></path><path d="M207.43,164.49h1.38v13.08h-1.38Z" style="fill:#fff"></path><path d="M224,164.49v13.08h-1.14L214.46,167v10.62h-1.39V164.49h1.14l8.44,10.61V164.49Z" style="fill:#fff"></path><path d="M227,176l.54-1.06a6.47,6.47,0,0,0,4.32,1.58c2.45,0,3.52-1,3.52-2.31,0-3.59-8.06-1.39-8.06-6.23,0-1.92,1.5-3.59,4.82-3.59a7.39,7.39,0,0,1,4.06,1.16l-.47,1.11a6.73,6.73,0,0,0-3.59-1.09c-2.39,0-3.46,1.07-3.46,2.38,0,3.58,8.06,1.42,8.06,6.18,0,1.93-1.53,3.57-4.88,3.57A7.09,7.09,0,0,1,227,176Z" style="fill:#fff"></path><path d="M242.13,165.68h-4.6v-1.19h10.58v1.19h-4.6v11.89h-1.38Z" style="fill:#fff"></path><path d="M259.25,177.57l-3-4.21a8.74,8.74,0,0,1-1,.06H251.7v4.15h-1.38V164.49h4.89c3.33,0,5.35,1.68,5.35,4.48a4,4,0,0,1-3,4.11l3.2,4.49Zm-.07-8.6c0-2.09-1.39-3.29-4-3.29H251.7v6.56h3.48C257.79,172.24,259.18,171,259.18,169Z" style="fill:#fff"></path><path d="M263.72,172v-7.49h1.38v7.44c0,3.1,1.46,4.52,4,4.52s4-1.42,4-4.52v-7.44h1.35V172c0,3.76-2,5.7-5.37,5.7S263.72,175.74,263.72,172Z" style="fill:#fff"></path><path d="M277.48,171a6.58,6.58,0,0,1,6.86-6.66,6.35,6.35,0,0,1,4.79,1.91l-.88.88a5.18,5.18,0,0,0-3.87-1.55,5.42,5.42,0,1,0,0,10.84,5.16,5.16,0,0,0,3.87-1.57l.88.88a6.37,6.37,0,0,1-4.81,1.92A6.56,6.56,0,0,1,277.48,171Z" style="fill:#fff"></path><path d="M294.46,165.68h-4.6v-1.19h10.58v1.19h-4.6v11.89h-1.38Z" style="fill:#fff"></path><path d="M302.65,164.49H304v13.08h-1.38Z" style="fill:#fff"></path><path d="M307.13,171a6.87,6.87,0,1,1,6.88,6.65A6.59,6.59,0,0,1,307.13,171Zm12.36,0a5.5,5.5,0,1,0-5.48,5.42A5.3,5.3,0,0,0,319.49,171Z" style="fill:#fff"></path><path d="M334.91,164.49v13.08h-1.14L325.36,167v10.62H324V164.49h1.14l8.43,10.61V164.49Z" style="fill:#fff"></path><g style="opacity:0.30000000000000004"><rect x="145.44" y="61.47" width="7.43" height="396.92"></rect></g><polygon points="309 106.82 309 61.47 352.68 61.47 352.68 107.66 331.26 129.08 309 106.82" style="fill:#455a64"></polygon><path d="M396,76.74c.14,0,.26,84.36.26,188.4s-.12,188.42-.26,188.42-.26-84.34-.26-188.42S395.88,76.74,396,76.74Z" style="fill:#263238"></path><path d="M400.5,76.74c.14,0,.26,84.36.26,188.4s-.12,188.42-.26,188.42-.26-84.34-.26-188.42S400.35,76.74,400.5,76.74Z" style="fill:#263238"></path><polygon points="396.03 131.55 406.97 131.55 416.97 139.13 408 148.09 396.03 148.09 396.03 131.55" style="fill:#455a64"></polygon><rect x="400.5" y="164.03" width="20.66" height="13.76" style="fill:#FFB35E"></rect><g style="opacity:0.30000000000000004"><path d="M320.58,327.54l-12.34,12a3.26,3.26,0,0,1-4.54,0l-85-81.36a3.27,3.27,0,0,1-.1-4.62l12.88-13.46a3.27,3.27,0,0,1,4.65-.07l84.49,82.79A3.26,3.26,0,0,1,320.58,327.54Z"></path></g><path d="M241.42,245.56a27.46,27.46,0,0,1-3.42,3.92,26.51,26.51,0,0,1-3.79,3.57,26.84,26.84,0,0,1,3.42-3.92A25.91,25.91,0,0,1,241.42,245.56Z" style="fill:#263238"></path><path d="M254.93,258.57a52.54,52.54,0,0,1-7.21,7.5,26.6,26.6,0,0,1,3.42-3.93A27.23,27.23,0,0,1,254.93,258.57Z" style="fill:#263238"></path><path d="M247.87,251.51a47.51,47.51,0,0,1-4.67,5.18,48.46,48.46,0,0,1-5,4.81,48,48,0,0,1,4.67-5.17A46.86,46.86,0,0,1,247.87,251.51Z" style="fill:#263238"></path><path d="M261.76,265.4a46.92,46.92,0,0,1-4.67,5.17,48,48,0,0,1-5,4.82,94,94,0,0,1,9.7-10Z" style="fill:#263238"></path><path d="M268.14,271.79a26.12,26.12,0,0,1-3.42,3.92,26.77,26.77,0,0,1-3.78,3.57,26.23,26.23,0,0,1,3.41-3.92A26.51,26.51,0,0,1,268.14,271.79Z" style="fill:#263238"></path><path d="M275,278.62a49.67,49.67,0,0,1-4.66,5.17,46.69,46.69,0,0,1-5,4.81,49.14,49.14,0,0,1,4.67-5.17A47.2,47.2,0,0,1,275,278.62Z" style="fill:#263238"></path><path d="M281.36,285a52.54,52.54,0,0,1-7.21,7.5,26.6,26.6,0,0,1,3.42-3.93A25.91,25.91,0,0,1,281.36,285Z" style="fill:#263238"></path><path d="M288.18,291.83a46,46,0,0,1-4.66,5.17,46.37,46.37,0,0,1-5,4.82,47.51,47.51,0,0,1,4.67-5.18A48.46,48.46,0,0,1,288.18,291.83Z" style="fill:#263238"></path><path d="M294.57,298.21a52.54,52.54,0,0,1-7.21,7.5,27.19,27.19,0,0,1,3.42-3.93A28,28,0,0,1,294.57,298.21Z" style="fill:#263238"></path><path d="M301.4,305a47.51,47.51,0,0,1-4.67,5.18,48.46,48.46,0,0,1-5,4.81,48.51,48.51,0,0,1,4.66-5.17A47.46,47.46,0,0,1,301.4,305Z" style="fill:#263238"></path><path d="M307.78,311.43a25.67,25.67,0,0,1-3.41,3.92,27.13,27.13,0,0,1-3.79,3.57A26,26,0,0,1,304,315,26.77,26.77,0,0,1,307.78,311.43Z" style="fill:#263238"></path><g style="opacity:0.30000000000000004"><path d="M275.71,273.23l11.9,11.16,8-7.87s12.87,4,21.15-5.14c7.52-8.27,5.28-20.3,5.28-20.3l-13.86,12.23-11.73-11.73,12.37-12.83a21.26,21.26,0,0,0-21.58,6.86c-7.44,8.43-3.6,19.51-3.6,19.51Z"></path></g><g style="opacity:0.30000000000000004"><path d="M260.93,305.8c-.29-.52-11.88-11.13-11.88-11.13l-7.54,7.38s-14.15-2.82-21.15,5.14c-7.84,8.91-5.28,20.3-5.28,20.3l13.86-12.23L240.67,327,228.3,339.82A21.28,21.28,0,0,0,249.88,333c7.44-8.43,3.6-19.52,3.6-19.52Z"></path></g><path d="M358.81,413.85c0,.15-37.54.26-83.83.26s-83.84-.11-83.84-.26,37.53-.26,83.84-.26S358.81,413.71,358.81,413.85Z" style="fill:#fff"></path><path d="M330.84,421.84c0,.14-24.69.26-55.13.26s-55.14-.12-55.14-.26,24.69-.26,55.14-.26S330.84,421.69,330.84,421.84Z" style="fill:#fff"></path><rect x="268.37" y="429.51" width="13.21" height="13.21" style="fill:#e0e0e0"></rect></g><g id="freepik--Character--inject-3"><path d="M129.89,440.12l-2.78,20.22s19.61,9.61,19.46,13.39l-39.38-4,3-31.67Z" style="fill:#455a64"></path><path d="M115.1,457.4a1.61,1.61,0,0,0-1.29,1.72,1.55,1.55,0,0,0,1.69,1.3,1.71,1.71,0,0,0,1.37-1.83,1.62,1.62,0,0,0-1.92-1.16" style="fill:#e0e0e0"></path><g style="opacity:0.6000000000000001"><path d="M107.19,469.76l.43-3.18,37.6,5s1.68.94,1.35,2.15Z" style="fill:#fff"></path></g><path d="M127.77,460.2c0,.19-1,.18-2,.71s-1.59,1.28-1.76,1.18.23-1.17,1.46-1.79S127.83,460,127.77,460.2Z" style="fill:#263238"></path><path d="M131.73,462.33c0,.19-.84.43-1.58,1.18s-1,1.59-1.2,1.56-.2-1.13.73-2S131.74,462.14,131.73,462.33Z" style="fill:#263238"></path><path d="M133.57,467.51c-.18,0-.35-1,.25-2s1.55-1.33,1.61-1.16-.55.67-1,1.5S133.77,467.51,133.57,467.51Z" style="fill:#263238"></path><path d="M127.89,455.52c-.1.17-1-.18-2-.22s-2,.22-2.06.05.8-.78,2.09-.72S128,455.38,127.89,455.52Z" style="fill:#263238"></path><path d="M76.36,303.45s-7.23,51.32-3.59,59.71c2.81,6.49,7.79,9.31,14.16,10.95,9.19,2.36,23.93,4.05,23.93,4.05l5-29.57-11.23-2.45,10.34-36.79L96.64,296.82Z" style="fill:#263238"></path><path d="M114.93,309.35l-9.06,141.77,25,1.27L142,382.06s11.88-58,12.69-65.09,0-22.15,0-22.15Z" style="fill:#263238"></path><path d="M114.22,320.42a1.23,1.23,0,0,1,0,.28c0,.21,0,.48,0,.82,0,.75-.06,1.8-.11,3.13-.13,2.72-.33,6.66-.62,11.52-.57,9.72-1.52,23.15-2.5,38-.45,7.42-.88,14.48-1.27,20.92s-1.09,12.19-1.57,17-.85,8.77-1.06,11.48c-.1,1.33-.18,2.37-.24,3.13,0,.33,0,.6-.07.81a.84.84,0,0,1,0,.27s0-.09,0-.27,0-.49,0-.82c0-.72.07-1.77.15-3.13.15-2.72.44-6.66.89-11.51s1-10.62,1.46-17,.72-13.5,1.23-20.91c1-14.81,2-28.21,2.65-38,.33-4.83.6-8.75.78-11.51.1-1.33.17-2.37.22-3.13,0-.33,0-.6.07-.81A1.33,1.33,0,0,1,114.22,320.42Z" style="fill:#455a64"></path><path d="M108.39,332.74a4.33,4.33,0,0,1-.15,1.11c-.14.71-.36,1.74-.66,3-.59,2.51-1.54,6-2.81,9.7s-2.62,7.05-3.68,9.41c-.53,1.18-1,2.13-1.31,2.77a4.36,4.36,0,0,1-.56,1,5.21,5.21,0,0,1,.38-1.06c.31-.78.7-1.72,1.15-2.83,1-2.39,2.26-5.71,3.53-9.44s2.26-7.14,3-9.63l.81-2.94A4.74,4.74,0,0,1,108.39,332.74Z" style="fill:#455a64"></path><path d="M99.52,178.5l-6,4.79s-19.1,3.41-20.73,6.39L79,228l4.82,32.88s-7.22,19.39-7.42,27.57,0,15,0,15h3.58a32.32,32.32,0,0,1,22.37,9h0l6.59-6,1.29,11.38s25.86,1.59,32.44-3.4,15.51-15.57,15.51-15.57,1.54-26.54-6.33-39.94S142,242.74,142,242.74s2.8-23.12,2.8-23.92,2.39-32.34,2.39-32.34l-19.84-5-5.74-4.39Z" style="fill:#455a64"></path><g style="opacity:0.30000000000000004"><path d="M83.12,262.73a11.11,11.11,0,0,0,9.19,2.82c2.21-.3,4.34-1.25,6.58-1.22,3.26.05,6.07,2.13,8.91,3.72a32.78,32.78,0,0,0,20.31,3.82c8-1.11,15.33-5.16,22.13-9.55a4.9,4.9,0,0,0,1.35-1.13,3.09,3.09,0,0,0-.18-3.58,5.18,5.18,0,0,0-3.27-1.84c-2.28-.43-4.61.13-6.89.5a42.94,42.94,0,0,1-14.7-.13c-6.16-1.12-12-3.58-18.24-4.41a35.71,35.71,0,0,0-20.42,3.32,11.17,11.17,0,0,0-3.67,2.57,6.92,6.92,0,0,0-1.1,5.11"></path></g><path d="M104.7,199.34a1,1,0,0,1,0,.3c0,.23,0,.53.06.9L105,204c.16,3,.4,7.37.69,12.7.53,10.76,1.27,25.57,2.08,41.92.19,4.09.38,8.09.56,11.95s.37,7.58.36,11.14c0,1.78,0,3.52-.16,5.2s-.32,3.3-.3,4.87c0,3.14.26,6.1.21,8.78s.4,5.08.62,7.2.45,3.93.63,5.43.29,2.62.38,3.44c0,.37.06.67.08.9a1.83,1.83,0,0,1,0,.31,1.77,1.77,0,0,1-.07-.31c0-.22-.07-.52-.13-.89l-.47-3.42-.72-5.43c-.25-2.12-.57-4.52-.7-7.22,0-2.7-.24-5.61-.27-8.79,0-1.59.17-3.23.27-4.9s.15-3.4.14-5.17c0-3.54-.2-7.26-.39-11.12s-.38-7.86-.57-11.95c-.76-16.35-1.44-31.16-1.93-41.92-.22-5.34-.4-9.67-.52-12.71,0-1.47-.09-2.63-.12-3.45,0-.38,0-.67,0-.9S104.7,199.34,104.7,199.34Z" style="fill:#263238"></path><path d="M80.18,196.86,79.6,237l3,7-2.49,19.12L70,257.44a14.33,14.33,0,0,1-7.34-14v-.13c.93-7.78,2.47-20.18,3.76-28.05,2-12.18,3.4-21.76,6.39-25.55Z" style="fill:#455a64"></path><path d="M147.22,186.48s5.79-1.19,8.79,12.78,5.39,38.32,5.39,38.32a2,2,0,0,1,1.19,3s-.4,13.15-2,14.74l-16.67-9.84-1.9-2.77Z" style="fill:#455a64"></path><polygon points="80.11 262.73 102.5 260.24 104.22 249.35 82.26 247.59 80.11 262.73" style="fill:#9d6054"></polygon><path d="M108.55,194.47a7.89,7.89,0,0,1-.75,1.15c-.58.79-1.32,1.79-2.19,3l-3.3,4.43a.68.68,0,0,1-.49.29.83.83,0,0,1-.52-.17,5,5,0,0,1-.63-.56,13.39,13.39,0,0,1-1.18-1.2,21.91,21.91,0,0,1-2.13-2.82,21.68,21.68,0,0,1-3.26-11.77,18.06,18.06,0,0,1,.43-3.71,7.2,7.2,0,0,1,.39-1.31,33.91,33.91,0,0,0-.45,5,21.44,21.44,0,0,0,5.4,14.25,15.94,15.94,0,0,0,1.14,1.18,6.4,6.4,0,0,0,.56.52c.2.11.24.12.37,0,1.24-1.65,2.41-3.12,3.37-4.35l2.33-2.9A6.2,6.2,0,0,1,108.55,194.47Z" style="fill:#263238"></path><path d="M127.38,181.49a1.13,1.13,0,0,1,.06.41,11.47,11.47,0,0,1,0,1.16,16.14,16.14,0,0,1-.64,4.25,43.82,43.82,0,0,1-2.32,5.92,58.23,58.23,0,0,1-3.7,6.85c-.73,1.18-1.46,2.31-2.17,3.4-.18.27-.35.54-.53.8a4.84,4.84,0,0,1-.6.82.81.81,0,0,1-.63.19,1,1,0,0,1-.53-.27,5.23,5.23,0,0,1-.6-.73L112,199.22l-2.53-3.44a8.59,8.59,0,0,1-.87-1.31,10.64,10.64,0,0,1,1,1.18c.68.87,1.58,2,2.66,3.35l3.9,5c.35.47.77,1,1,.72a5.28,5.28,0,0,0,.51-.71l.52-.81c.71-1.09,1.43-2.22,2.15-3.39a62.66,62.66,0,0,0,3.71-6.77,51.08,51.08,0,0,0,2.41-5.83A23.37,23.37,0,0,0,127.38,181.49Z" style="fill:#263238"></path><path d="M96.12,197.05c0,.09-1.06.27-2.67,1a13.59,13.59,0,0,0-5.33,4.44l-.15.21-.22-.16A13.49,13.49,0,0,0,86,201.44a14.05,14.05,0,0,0-8.14-1.57,32.1,32.1,0,0,0-3.43.75,2.94,2.94,0,0,1,.85-.43,12.27,12.27,0,0,1,2.53-.68A13.61,13.61,0,0,1,86.27,201a14.28,14.28,0,0,1,1.8,1.17l-.37,0a13.06,13.06,0,0,1,5.62-4.45,11.58,11.58,0,0,1,2-.62A2.24,2.24,0,0,1,96.12,197.05Z" style="fill:#263238"></path><path d="M146.51,199.52a8.39,8.39,0,0,0-3.72-1,10.31,10.31,0,0,0-4.1.77,28.31,28.31,0,0,0-4.57,2.47l-.48.3-.2.13-.14-.19a11.45,11.45,0,0,0-7.67-4.2,17.78,17.78,0,0,0-3.73.11,3.59,3.59,0,0,1,1-.3,10.08,10.08,0,0,1,2.78-.17,11.51,11.51,0,0,1,4,1.06,11.12,11.12,0,0,1,4,3.19l-.35-.06.48-.31a25.6,25.6,0,0,1,4.68-2.48,10.32,10.32,0,0,1,4.29-.69,7,7,0,0,1,2.83.76A2.52,2.52,0,0,1,146.51,199.52Z" style="fill:#263238"></path><path d="M141.11,286.62s-.13.13-.39.33l-1.17.85-.86.6c-.32.21-.69.41-1.07.64a27.63,27.63,0,0,1-2.67,1.47l-1.59.77c-.56.26-1.16.47-1.78.73a41.67,41.67,0,0,1-4,1.37,44.68,44.68,0,0,1-19.24,1.14c-1.47-.28-2.87-.51-4.15-.89-.64-.17-1.26-.31-1.85-.51l-1.67-.58a26.52,26.52,0,0,1-2.82-1.14c-.41-.18-.79-.34-1.14-.51l-.92-.5-1.27-.7c-.28-.17-.43-.26-.42-.28a2.18,2.18,0,0,1,.47.19l1.31.61.94.46c.34.15.73.3,1.15.47.82.32,1.74.74,2.82,1.06l1.67.54c.58.18,1.2.31,1.84.47,1.27.36,2.66.57,4.11.84a51.06,51.06,0,0,0,9.58.43,49.38,49.38,0,0,0,9.47-1.57c1.41-.43,2.76-.8,4-1.31.61-.24,1.21-.44,1.77-.69l1.59-.73c1-.44,1.9-1,2.68-1.39.39-.22.76-.4,1.09-.6l.87-.56,1.23-.77A2.12,2.12,0,0,1,141.11,286.62Z" style="fill:#263238"></path><path d="M135,272.52a10.28,10.28,0,0,1-1.16,1.15c-.38.36-.86.8-1.45,1.26s-1.23,1-2,1.55-1.61,1.15-2.57,1.72-2,1.16-3.07,1.75a46.48,46.48,0,0,1-15.43,4.83c-1.24.13-2.42.28-3.53.31s-2.14.07-3.08.05-1.8-.08-2.54-.13a16.33,16.33,0,0,1-1.91-.21,11.07,11.07,0,0,1-1.61-.28,8.68,8.68,0,0,1,1.63.08c.52,0,1.16.11,1.9.12s1.59.09,2.53,0,2,0,3.06-.11,2.26-.21,3.49-.36a48.49,48.49,0,0,0,15.27-4.77c1.09-.58,2.14-1.11,3.07-1.7s1.8-1.12,2.58-1.65,1.44-1,2-1.48,1.1-.84,1.5-1.18A9.84,9.84,0,0,1,135,272.52Z" style="fill:#263238"></path><path d="M75.22,200.38a6.5,6.5,0,0,1,.25,1.33c.13,1,.29,2.18.49,3.65.42,3.18,1,7.38,1.59,12s1.27,8.84,1.73,12c.21,1.46.38,2.68.52,3.65a8.23,8.23,0,0,1,.13,1.34,6.31,6.31,0,0,1-.33-1.31c-.18-.85-.41-2.09-.69-3.62-.54-3.06-1.23-7.3-1.88-12s-1.14-9-1.44-12.06c-.15-1.55-.26-2.8-.32-3.67A8.08,8.08,0,0,1,75.22,200.38Z" style="fill:#263238"></path><path d="M147.19,192.28a1.83,1.83,0,0,1,0,.51c0,.39,0,.87-.08,1.45-.08,1.26-.22,3.09-.41,5.34-.38,4.5-1,10.71-1.81,17.56s-1.68,13-2.36,17.5c-.34,2.23-.63,4-.85,5.28-.11.57-.2,1.05-.27,1.43a2.38,2.38,0,0,1-.12.5,1.81,1.81,0,0,1,0-.51c0-.39.1-.87.17-1.45.17-1.33.4-3.12.69-5.3.59-4.48,1.39-10.67,2.21-17.51s1.48-13.05,2-17.54c.24-2.18.43-4,.58-5.31.07-.58.13-1.06.17-1.45A1.89,1.89,0,0,1,147.19,192.28Z" style="fill:#263238"></path><polygon points="150.75 224.48 122.14 241.72 114.75 239.64 80.83 233.1 73.82 255.35 100.51 257.87 112.28 263.51 117.97 261.05 142.79 244 150.75 224.48" style="fill:#FFB35E"></polygon><path d="M112.27,263.43a25.21,25.21,0,0,1,1.34-3.2c.88-2,2.09-4.65,3.38-7.64s2.43-5.73,3.24-7.71a25.69,25.69,0,0,1,1.41-3.17,3.36,3.36,0,0,1-.23.91c-.18.57-.47,1.39-.83,2.4-.73,2-1.81,4.77-3.11,7.77s-2.56,5.68-3.52,7.6c-.48,1-.89,1.72-1.18,2.25A3.58,3.58,0,0,1,112.27,263.43Z" style="fill:#263238"></path><path d="M111.47,247.14a14.36,14.36,0,0,1,1.17-3.72,14.93,14.93,0,0,1,1.66-3.52,14.47,14.47,0,0,1-1.17,3.71A15.4,15.4,0,0,1,111.47,247.14Z" style="fill:#263238"></path><path d="M118.19,240.61s.86-3.42,3.45-4.75,24.07-12.5,24.07-12.5l2.55,2.62-26.12,15.74Z" style="fill:#e0e0e0"></path><path d="M83.78,233.67l4.35-2.18s12.32-1.33,19.44,0,10.85,5.31,10.62,9.12Z" style="fill:#e0e0e0"></path><path d="M134.27,242.86a9.4,9.4,0,0,0-4.93,4.92c-1.71,3.79-2.84,5.69-4.93,7s-3.22,2.27-5.68,1.13-6.46-4.86-8.35-5.16c-1.12-.18-1.51,1.56-1.51,1.56s-4.92-3.28-6.63-2.68-.19,1.92,1,3.25a19,19,0,0,1,1.89,2.65c.37-.15-3.42-3.72-5.76-3a1.37,1.37,0,0,0-1.07,1.77l2.85,2.1s-1.51,2.71-.19,3.28,10.81,7.2,12.89,7.2,11.56,1.71,15.54.76,8.42-2.31,8.42-2.31,15.65-5.08,20.38-11.14l-14.21-8.72s-9.47,12.32-10,11a13,13,0,0,1-.57-7C133.89,246.65,135.91,241.94,134.27,242.86Z" style="fill:#9d6054"></path><path d="M121.14,261.37a5.73,5.73,0,0,1-2.2-.64,37.27,37.27,0,0,1-4.69-2.87,20.13,20.13,0,0,1-4.27-3.52,4,4,0,0,1-1.11-2,19.45,19.45,0,0,0,1.38,1.77,25.79,25.79,0,0,0,4.28,3.32c1.82,1.17,3.33,2.36,4.57,3S121.17,261.29,121.14,261.37Z" style="fill:#724a44"></path><path d="M117.91,265.37a9.18,9.18,0,0,1-2-1.18c-1.2-.79-2.82-1.94-4.56-3.28s-3.25-2.63-4.32-3.59a10,10,0,0,1-1.64-1.66,11.54,11.54,0,0,1,1.88,1.37l4.4,3.47,4.46,3.39A11.58,11.58,0,0,1,117.91,265.37Z" style="fill:#724a44"></path><path d="M110,264.11c-.12.1-1.82-2-4.32-4.1s-4.8-3.51-4.72-3.64a16.68,16.68,0,0,1,5.06,3.25A17,17,0,0,1,110,264.11Z" style="fill:#724a44"></path><path d="M112.88,208.4a6.56,6.56,0,0,1-.18-.67,2.86,2.86,0,0,0-1-1.44,2.63,2.63,0,0,0-4.17,2.11,2.63,2.63,0,0,0,1.69,2.43,2.69,2.69,0,0,0,2.49-.33,2.86,2.86,0,0,0,1-1.44,5.14,5.14,0,0,1,.18-.66s.09.25,0,.71a2.77,2.77,0,0,1-1,1.68,3,3,0,0,1-2.87.49,3.06,3.06,0,0,1,0-5.77,3,3,0,0,1,2.87.49,2.8,2.8,0,0,1,1,1.68C113,208.14,112.91,208.4,112.88,208.4Z" style="fill:#263238"></path><path d="M113.89,227.48s-.06-.25-.19-.67a2.88,2.88,0,0,0-1-1.43,2.61,2.61,0,1,0-2.49,4.53,2.66,2.66,0,0,0,2.49-.33,2.88,2.88,0,0,0,1-1.43c.13-.42.14-.67.19-.67a1.36,1.36,0,0,1,0,.71,2.82,2.82,0,0,1-1,1.68,3,3,0,0,1-2.87.49,3.05,3.05,0,0,1,0-5.76,3,3,0,0,1,2.87.48,2.87,2.87,0,0,1,1,1.68A1.39,1.39,0,0,1,113.89,227.48Z" style="fill:#263238"></path><path d="M115.76,272.69a6.1,6.1,0,0,1-.19-.66,2.8,2.8,0,0,0-1-1.44,2.67,2.67,0,0,0-2.48-.33,2.6,2.6,0,0,0,0,4.87,2.67,2.67,0,0,0,2.48-.33,2.84,2.84,0,0,0,1-1.44c.14-.41.15-.67.19-.67s.09.26,0,.72a2.82,2.82,0,0,1-1,1.68,3,3,0,0,1-2.87.49,3.06,3.06,0,0,1,0-5.77,3,3,0,0,1,2.87.49,2.79,2.79,0,0,1,1,1.68C115.85,272.44,115.79,272.7,115.76,272.69Z" style="fill:#263238"></path><path d="M115.33,290.5s-.06-.26-.19-.67a2.9,2.9,0,0,0-1-1.44,2.69,2.69,0,0,0-2.49-.33,2.6,2.6,0,0,0,0,4.87,2.69,2.69,0,0,0,2.49-.33,2.86,2.86,0,0,0,1-1.44c.13-.41.14-.67.19-.66a1.34,1.34,0,0,1,0,.71,2.84,2.84,0,0,1-1,1.68,3,3,0,0,1-2.87.49,3.06,3.06,0,0,1,0-5.77,3,3,0,0,1,2.87.49,2.87,2.87,0,0,1,1,1.68A1.41,1.41,0,0,1,115.33,290.5Z" style="fill:#263238"></path><path d="M90.05,129.56a14.24,14.24,0,0,1,6.83-8.64A18,18,0,0,1,109,119.46a38.15,38.15,0,0,1,11.44,4.73,18.65,18.65,0,0,1,5.46,4.26c2.64,3.32,3,7.85,3.26,12.08.2,3.43.38,7-1.07,10.13A10.57,10.57,0,0,1,121,156.4" style="fill:#263238"></path><path d="M127.24,146.73a22.71,22.71,0,0,0,5.45-16.83c-.19-2-.75-4.18-2.31-5.49-.8-.67-1.79-1.07-2.61-1.72-1.48-1.18-2.21-3.1-3.61-4.37a5.76,5.76,0,0,0-9.39,2.68c-.74,2.57.37,5.27,1.45,7.72l5,11.34a14.92,14.92,0,0,0,2.31,4,5.06,5.06,0,0,0,4.08,1.87" style="fill:#263238"></path><path d="M91.77,127a19.49,19.49,0,0,0-1.72,24.29,163.9,163.9,0,0,1,8.72-27.18" style="fill:#263238"></path><path d="M88.16,139.66c.44-6.74,4.93-15,11.65-14.28l15.54,4A11.54,11.54,0,0,1,124,140c0,.26,0-.06,0,.14l-1,38.05-14.46,16.32h0l-9.92-15.26c0-3.28,0-5.9,0-5.88S90,171.88,88.25,160.64C87.38,155.05,87.68,147.15,88.16,139.66Z" style="fill:#9d6054"></path><path d="M103.61,136.14a11.64,11.64,0,0,1-3.26.67,11.84,11.84,0,0,1-3.33,0c0-.08,1.49-.08,3.3-.27S103.59,136.06,103.61,136.14Z" style="fill:#724a44"></path><path d="M101.1,135.74A7.86,7.86,0,0,1,97,136a13.67,13.67,0,0,1,2-.12A13.53,13.53,0,0,1,101.1,135.74Z" style="fill:#724a44"></path><path d="M105.78,158c-.08,0-.18-.45-.63-.74s-.9-.22-.92-.29.09-.11.3-.14a1.13,1.13,0,0,1,.77.2,1.23,1.23,0,0,1,.49.64C105.84,157.86,105.81,158,105.78,158Z" style="fill:#724a44"></path><path d="M92.32,148.39a1.44,1.44,0,0,0,1.38,1.46,1.38,1.38,0,0,0,1.49-1.3,1.43,1.43,0,0,0-1.38-1.45A1.37,1.37,0,0,0,92.32,148.39Z" style="fill:#263238"></path><path d="M90.14,144.43c.18.19,1.27-.62,2.82-.61s2.69.78,2.86.6-.1-.43-.59-.79a4,4,0,0,0-2.29-.71,3.83,3.83,0,0,0-2.25.72C90.22,144,90.05,144.34,90.14,144.43Z" style="fill:#263238"></path><path d="M106.78,148.39a1.44,1.44,0,0,0,1.38,1.46,1.39,1.39,0,0,0,1.49-1.3,1.43,1.43,0,0,0-1.38-1.45A1.36,1.36,0,0,0,106.78,148.39Z" style="fill:#263238"></path><path d="M105.38,144.75c.18.19,1.28-.61,2.83-.61s2.68.79,2.85.6-.09-.42-.59-.79a4,4,0,0,0-2.29-.71,3.86,3.86,0,0,0-2.24.72C105.46,144.33,105.3,144.67,105.38,144.75Z" style="fill:#263238"></path><path d="M99.73,156.24a9.87,9.87,0,0,0-2.52-.46c-.39,0-.77-.12-.83-.39a2,2,0,0,1,.26-1.17c.38-1,.77-2,1.18-3,1.64-4.29,2.82-7.81,2.65-7.88s-1.64,3.36-3.28,7.65c-.39,1.06-.77,2.07-1.12,3a2.26,2.26,0,0,0-.21,1.56,1,1,0,0,0,.65.58,2.88,2.88,0,0,0,.67.09A9.86,9.86,0,0,0,99.73,156.24Z" style="fill:#263238"></path><path d="M113.52,169.33s-3.65,7.72-14.9,6.64v-2.64A28.25,28.25,0,0,0,113.52,169.33Z" style="fill:#724a44"></path><path d="M100.38,160a2.78,2.78,0,0,1,2.51-1,2.54,2.54,0,0,1,1.76,1,1.6,1.6,0,0,1,.11,1.84,1.85,1.85,0,0,1-2,.51,6,6,0,0,1-2-1.18,1.74,1.74,0,0,1-.44-.46.53.53,0,0,1,0-.58" style="fill:#724a44"></path><path d="M104.29,157.32c-.25,0-.26,1.67-1.7,2.86s-3.23,1-3.25,1.24.4.33,1.16.35a4.17,4.17,0,0,0,2.71-.94,3.64,3.64,0,0,0,1.32-2.39C104.6,157.73,104.41,157.31,104.29,157.32Z" style="fill:#263238"></path><path d="M105,140.21c.15.42,1.7.23,3.52.45s3.29.72,3.53.34c.11-.18-.14-.57-.74-1a6.12,6.12,0,0,0-5.37-.61C105.28,139.68,105,140,105,140.21Z" style="fill:#263238"></path><path d="M90.72,139.94c.27.35,1.34,0,2.63,0s2.37.24,2.62-.13c.11-.18-.06-.53-.53-.86a3.77,3.77,0,0,0-4.23.12C90.75,139.41,90.6,139.77,90.72,139.94Z" style="fill:#263238"></path><path d="M91.22,129.39a4.92,4.92,0,0,1,4.36-2.79,9.48,9.48,0,0,1,5.19,1.51c6.69,3.87,10.45,11.55,17.06,15.55a26.83,26.83,0,0,1,4.81,3.05c1.38,1.3,2.28,3.39,1.51,5.13a15.89,15.89,0,0,0,2.3-3.88,5.3,5.3,0,0,0-.19-4.38c-.57-1-1.58-1.75-1.86-2.86s.14-2,.1-3a6.43,6.43,0,0,0-1-2.86,29.14,29.14,0,0,0-10.74-11.31,19.13,19.13,0,0,0-9.86-2.55,14.56,14.56,0,0,0-9.39,3.73c-1.47,1.38-3,2.8-2.26,4.67" style="fill:#263238"></path><path d="M124.07,151.87s.13-.15.35-.46a4.9,4.9,0,0,0,.72-1.46,8.35,8.35,0,0,0-.62-5.89c-.5-1.17-1.22-2.38-2-3.71a42.74,42.74,0,0,1-2.06-4.39,31.4,31.4,0,0,0-2.36-4.76,18.5,18.5,0,0,0-3.72-4.28,19.7,19.7,0,0,0-9.86-4.54,14.54,14.54,0,0,0-8.75,1.18,9.48,9.48,0,0,0-4.21,4.2A8.51,8.51,0,0,0,91,129.3a2.75,2.75,0,0,1-.15.56.72.72,0,0,1,0-.14,4.07,4.07,0,0,1,.07-.43,7.3,7.3,0,0,1,.54-1.57,9.52,9.52,0,0,1,4.22-4.33,14.56,14.56,0,0,1,8.88-1.26,19.87,19.87,0,0,1,10,4.58,18.61,18.61,0,0,1,3.77,4.35,30.5,30.5,0,0,1,2.36,4.81,43.5,43.5,0,0,0,2,4.37c.72,1.33,1.43,2.55,1.93,3.75a8.31,8.31,0,0,1,.54,6,4.74,4.74,0,0,1-.78,1.47A3.87,3.87,0,0,1,124.07,151.87Z" style="fill:#455a64"></path><path d="M129.25,146a1.3,1.3,0,0,1,0-.32c0-.24,0-.54,0-.92,0-.79.06-1.94,0-3.36a28.08,28.08,0,0,0-.55-4.94,13.08,13.08,0,0,0-2.4-5.51,30.58,30.58,0,0,0-4.31-4.29c-1.43-1.23-2.75-2.28-3.9-3.11s-2.13-1.45-2.81-1.85l-.8-.46a1.34,1.34,0,0,1-.27-.17,1,1,0,0,1,.3.12c.19.09.47.23.82.42a27.69,27.69,0,0,1,2.87,1.78c1.17.81,2.52,1.85,3.95,3.07a30.08,30.08,0,0,1,4.37,4.32,13.21,13.21,0,0,1,2.43,5.62,26.51,26.51,0,0,1,.49,5c0,1.43,0,2.58-.11,3.38,0,.4-.06.7-.08.91A1.43,1.43,0,0,1,129.25,146Z" style="fill:#455a64"></path><path d="M124.32,118.83a4.73,4.73,0,0,1,.31,1.27,15.11,15.11,0,0,1,.15,3.17,14.62,14.62,0,0,1-.53,3.12,4.61,4.61,0,0,1-.46,1.23,33.37,33.37,0,0,0,.71-4.37A32.15,32.15,0,0,0,124.32,118.83Z" style="fill:#455a64"></path><path d="M132.22,127.15a2.23,2.23,0,0,1-.38.94,5.89,5.89,0,0,1-1.63,1.81,6,6,0,0,1-2.22,1,2.38,2.38,0,0,1-1,.09,7.12,7.12,0,0,1,1-.28,7,7,0,0,0,3.74-2.74A9.2,9.2,0,0,1,132.22,127.15Z" style="fill:#455a64"></path><path d="M132.78,134.71a4.72,4.72,0,0,1-2.24.4,4.63,4.63,0,0,1-2.21-.53c0-.09,1,.21,2.22.26S132.76,134.62,132.78,134.71Z" style="fill:#455a64"></path><path d="M127.89,154.35c-.26-.14-.13-.88-.1-2.09a5.7,5.7,0,0,0-.23-2,3.1,3.1,0,0,0-.21-.45,1.37,1.37,0,0,0-.13-.2l-.18-.26a9.47,9.47,0,0,0-.93-1.08,2.74,2.74,0,0,0-1-.68c-.12,0-.15,0-.1,0l-.39.08-.42.1a7.38,7.38,0,0,0-1.6.6c-.27.14-.53.29-.81.46l-.2.14-.35.2a6.59,6.59,0,0,1-.71.34,7.26,7.26,0,0,1-3.16.53,5.29,5.29,0,0,1-1.9-.47l-.24-.13-.19-.11a3.52,3.52,0,0,1-.38-.24,6.6,6.6,0,0,1-.7-.56,9.11,9.11,0,0,1-1.93-2.63c-.45-.89-.79-1.76-1.12-2.55a29.67,29.67,0,0,0-4.83-7.93,32.42,32.42,0,0,0-5.63-5.22,17.84,17.84,0,0,0-4.43-2.54c-1.12-.42-1.85-.53-1.9-.83s.67-.73,2.14-.77a12.49,12.49,0,0,1,5.71,1.63,26.47,26.47,0,0,1,6.94,5.16,28.11,28.11,0,0,1,5.83,8.92c.35.85.65,1.62,1,2.27a5.88,5.88,0,0,0,1,1.52,2.91,2.91,0,0,0,.27.24.67.67,0,0,0,.14.09l.07,0,0,0a1.25,1.25,0,0,0,.46.14,3.66,3.66,0,0,0,1.48-.16l.33-.13.15-.07.28-.15a11.56,11.56,0,0,1,1.18-.55,10.64,10.64,0,0,1,2.44-.65l.58-.07.28,0,.32,0a3.26,3.26,0,0,1,1.78.43,5.64,5.64,0,0,1,1.8,1.66,10.26,10.26,0,0,1,1,1.65c.06.14.12.25.18.42a2.84,2.84,0,0,1,.17.49,4,4,0,0,1,.17.92,6,6,0,0,1-.47,2.74C128.78,154,128.13,154.47,127.89,154.35Z" style="fill:#263238"></path><path d="M122.48,148.1c.11-.32,6-2.44,6,3.79.08,6.06-6,4.87-6,4.69S122.48,148.1,122.48,148.1Z" style="fill:#9d6054"></path><path d="M124.34,154.27s.1.07.28.15a1.06,1.06,0,0,0,.79,0,2.6,2.6,0,0,0,1.19-2.35,3.67,3.67,0,0,0-.31-1.51,1.24,1.24,0,0,0-.8-.8.53.53,0,0,0-.62.3c-.08.17,0,.29-.08.3s-.13-.1-.08-.35a.63.63,0,0,1,.23-.38.78.78,0,0,1,.59-.16,1.48,1.48,0,0,1,1.11.92,3.69,3.69,0,0,1,.38,1.69,2.74,2.74,0,0,1-1.52,2.63,1.14,1.14,0,0,1-1-.15C124.35,154.42,124.32,154.28,124.34,154.27Z" style="fill:#724a44"></path><path d="M127.14,148a3.18,3.18,0,0,0-.25-.41,2.36,2.36,0,0,0-1.09-.8,4.37,4.37,0,0,0-2.14-.19,9.9,9.9,0,0,0-2.72,1,7.18,7.18,0,0,1-3.44.87,5.54,5.54,0,0,1-3.58-1.91,11.27,11.27,0,0,1-2.14-4c-.51-1.48-1-3-1.57-4.55a23.37,23.37,0,0,0-4.77-7.87,13.4,13.4,0,0,0-6.4-3.78,11.47,11.47,0,0,0-2.87-.37,10.47,10.47,0,0,0-2.17.26c-1.17.29-1.76.62-1.78.58l.11-.06.33-.15a6.88,6.88,0,0,1,1.31-.47,9.22,9.22,0,0,1,2.2-.31,11.19,11.19,0,0,1,2.91.33,13.46,13.46,0,0,1,6.55,3.79,23.41,23.41,0,0,1,4.84,8c.61,1.53,1.07,3.09,1.56,4.56a11.26,11.26,0,0,0,2.08,3.89,5.33,5.33,0,0,0,3.41,1.85,7.07,7.07,0,0,0,3.35-.82,9.91,9.91,0,0,1,2.77-.95,4.33,4.33,0,0,1,2.2.24,2.26,2.26,0,0,1,1.09.87,1.27,1.27,0,0,1,.17.32C127.14,148,127.15,148,127.14,148Z" style="fill:#455a64"></path><path d="M124.88,145a2.19,2.19,0,0,1-.36-.2c-.23-.15-.59-.35-1-.65a20.75,20.75,0,0,1-3.26-3,60,60,0,0,1-4-5.19,47.87,47.87,0,0,0-5-6.22,18.75,18.75,0,0,0-3.23-2.55,15.61,15.61,0,0,0-3.48-1.58,17.17,17.17,0,0,0-6.41-.79,16.9,16.9,0,0,0-4.3.84c-.49.15-.86.32-1.12.42a2.28,2.28,0,0,1-.39.14,1.46,1.46,0,0,1,.37-.19,9.2,9.2,0,0,1,1.11-.47,15.4,15.4,0,0,1,4.31-.93,17,17,0,0,1,6.51.74,15.19,15.19,0,0,1,3.54,1.59,18.88,18.88,0,0,1,3.28,2.58,46.45,46.45,0,0,1,5,6.27,63.22,63.22,0,0,0,3.93,5.21,22.07,22.07,0,0,0,3.19,3c.41.32.76.53,1,.69A2.23,2.23,0,0,1,124.88,145Z" style="fill:#455a64"></path><path d="M125,155.34a1.19,1.19,0,1,1-.28.09" style="fill:#fff"></path><path d="M124.74,155.43a1.71,1.71,0,0,0-.54.81,1,1,0,0,0,.23.95,1.14,1.14,0,0,0,1.13.33,1.16,1.16,0,0,0,.74-.92,1.05,1.05,0,0,0-.36-.91,1.6,1.6,0,0,0-.92-.35.53.53,0,0,1,.29-.07,1.27,1.27,0,0,1,.75.27,1.22,1.22,0,0,1,.49,1.09,1.3,1.3,0,0,1-2.31.73,1.22,1.22,0,0,1-.23-1.17,1.27,1.27,0,0,1,.46-.65C124.63,155.43,124.74,155.42,124.74,155.43Z" style="fill:#263238"></path></g></svg>