<svg xmlns="http://www.w3.org/2000/svg" viewBox="0 0 500 500"><g id="freepik--Floor--inject-2"><path id="freepik--floor--inject-2" d="M94.94,438.6c85.67,44.75,224.56,44.75,310.22,0s85.66-117.31,0-162.06-224.56-44.75-310.22,0S9.27,393.85,94.94,438.6Z" style="fill:#f5f5f5"></path></g><g id="freepik--Shadow--inject-2"><ellipse cx="397.07" cy="370.15" rx="48.02" ry="27.72" style="fill:#e0e0e0"></ellipse></g><g id="freepik--pen-tool--inject-2"><path d="M152.48,145.5c-4.7,2.71-8.53,10-8.53,16.28,0,5.59,3.05,8.49,7,7.13V287.57l-43.25-90.75a7.62,7.62,0,0,1-.08-5.54c10.92-25.27,19-53.74,21.72-82.95a6.59,6.59,0,0,1,2.91-4.55l40.4-23.33A1.81,1.81,0,0,1,175.61,82c2.72,25.27,10.45,44,20.93,56.64a6.18,6.18,0,0,1,1.11,5.2c-6.08,19.76-41.12,133.72-43.67,142V167.18c4-3.26,7-9.65,7-15.24C161,145.65,157.19,142.78,152.48,145.5Z" style="fill:#FFA200"></path><path d="M217.44,155.23l-43.67,142-3-1.73V299L151,287.57l-43.25-90.75a7.62,7.62,0,0,1-.08-5.54c10.92-25.27,19-53.74,21.72-82.95a6.59,6.59,0,0,1,2.91-4.55l40.4-23.33a5.83,5.83,0,0,1,5.27,0l14.52,8.38a6.7,6.7,0,0,1,2.94,4.56c2.71,25.27,10.44,44,20.93,56.63A6.21,6.21,0,0,1,217.44,155.23Z" style="fill:#FFA200"></path><path d="M180.8,163.36c0,5.61-3,12-7,15.24V297.26l-3-1.73V180.33c-4,1.37-7-1.52-7-7.11,0-6.29,3.81-13.58,8.52-16.3S180.8,157.09,180.8,163.36Z" style="opacity:0.15"></path><path d="M217.44,155.23l-43.67,142V178.6c4-3.24,7-9.63,7-15.24,0-6.27-3.81-9.16-8.52-6.44s-8.52,10-8.52,16.3c0,5.59,3,8.48,7,7.11V299l-43.26-90.73a7.57,7.57,0,0,1-.09-5.54c10.92-25.27,19-53.74,21.74-83a6.61,6.61,0,0,1,2.9-4.56l40.39-23.32a1.82,1.82,0,0,1,2.94,1.51c2.71,25.27,10.44,44,20.93,56.63A6.21,6.21,0,0,1,217.44,155.23Z" style="fill:#FFA200"></path><path d="M150,117.43a5.76,5.76,0,0,0-.81,2.33c-2.74,29.22-10.82,57.68-21.74,83a7.16,7.16,0,0,0-.47,3l-19.79-11.42a7.39,7.39,0,0,1,.46-3.05c10.93-25.27,19-53.74,21.73-82.95a6,6,0,0,1,.83-2.34Z" style="fill:#fff;opacity:0.25"></path><path d="M195.33,93a1.76,1.76,0,0,0-2.85-1.08l-40.4,23.32a6.09,6.09,0,0,0-2.09,2.23L130.2,106a6.23,6.23,0,0,1,2.07-2.21l40.4-23.33a5.87,5.87,0,0,1,5.29,0l14.51,8.38A6.72,6.72,0,0,1,195.33,93Z" style="opacity:0.15"></path><path d="M120.49,67.55l64-36.95a5.83,5.83,0,0,1,5.27,0L204.27,39a5.81,5.81,0,0,1,2.64,4.57V71.75a5.83,5.83,0,0,1-2.64,4.57l-64,37a5.83,5.83,0,0,1-5.27,0l-14.52-8.39a5.81,5.81,0,0,1-2.64-4.57V72.12A5.83,5.83,0,0,1,120.49,67.55Z" style="fill:#FFA200"></path><path d="M206.89,43.13c-.18-1.36-1.29-1.86-2.62-1.09L140.29,79a5.31,5.31,0,0,0-1.87,2l-19.8-11.42a5.42,5.42,0,0,1,1.87-2l64-36.95a5.83,5.83,0,0,1,5.27,0L204.27,39A5.89,5.89,0,0,1,206.89,43.13Z" style="fill:#fff;opacity:0.4"></path><path d="M139.86,113.47l-.06,0-.16,0-.17.07a.84.84,0,0,1-.26.07l-.31.08-.22,0a3.71,3.71,0,0,1-.45.06,5.56,5.56,0,0,1-3.22-.59l-14.52-8.38a5.83,5.83,0,0,1-2.64-4.57V72.12a5.31,5.31,0,0,1,.77-2.59L138.42,81a5.28,5.28,0,0,0-.78,2.6v28.19c0,1.2.6,1.89,1.46,1.89a1.24,1.24,0,0,0,.38,0A2,2,0,0,0,139.86,113.47Z" style="opacity:0.15"></path><path d="M170.79,299,151,287.57l-43.24-90.75a6.8,6.8,0,0,1-.56-2.49L127,205.75a6.67,6.67,0,0,0,.56,2.51Z" style="opacity:0.15"></path><path d="M173.77,178.6V297.26l-3-1.73V180.33c-4,1.37-7-1.52-7-7.11,0-.13,0-.25,0-.39Z" style="opacity:0.15"></path><path d="M265.24,144.48c0-3.23-2.26-4.53-5.05-2.92a11.18,11.18,0,0,0-5.06,8.75c0,2.61,1.5,3.94,3.55,3.5-2.85,59.61-44.58,129.85-95.48,159.24-25.29,14.6-49,17-66.76,6.75C79.67,310.11,70,290.18,69,263.4a11.29,11.29,0,0,0,3.6-7.65c0-3.22-2.26-4.53-5-2.92a11.17,11.17,0,0,0-5.05,8.76c0,2.75,1.65,4.09,3.87,3.42,1.36,27,11.43,47.14,28.72,57.12a50.92,50.92,0,0,0,25.76,6.62c13.43,0,28.3-4.49,43.69-13.37,52.06-30.06,94.66-102.28,96.88-163.06A11.37,11.37,0,0,0,265.24,144.48Z" style="fill:#455a64"></path><path d="M260.19,253a11.28,11.28,0,0,0-4.85,7.09l-183,105.65c-.65-2-2.54-2.61-4.79-1.31a11.17,11.17,0,0,0-5.05,8.76c0,3.22,2.26,4.53,5.05,2.92a11.39,11.39,0,0,0,4.91-7.34L255.34,263.21c.59,2.13,2.52,2.83,4.85,1.49a11.18,11.18,0,0,0,5.05-8.76C265.24,252.72,263,251.41,260.19,253Z" style="fill:#455a64"></path><path d="M74.62,258.59a7.19,7.19,0,1,1-7.19-7.19A7.18,7.18,0,0,1,74.62,258.59Z" style="fill:#455a64"></path><circle cx="67.16" cy="370.15" r="7.19" style="fill:#455a64"></circle><path d="M267.78,259.05a7.19,7.19,0,1,1-7.19-7.19A7.19,7.19,0,0,1,267.78,259.05Z" style="fill:#455a64"></path><path d="M267.12,147.25a7.19,7.19,0,1,1-7.19-7.19A7.19,7.19,0,0,1,267.12,147.25Z" style="fill:#455a64"></path></g><g id="freepik--Character--inject-2"><g id="freepik--character--inject-2"><path d="M308.24,381.34c-1.49,3.27-6.91,4-10.06,4.13-4.8.16-9.21-2-13.48-3.93-3-1.37-5.91-2.92-8.87-4.38s-5.89-3.13-9.11-3.85c-3.82-.86-10.55-1.27-11.88,3.6-1.44,5.26,5.77,9.68,9.18,12.21s8.06,5.31,9.72,9.33c2,4.89-4.61,6.43-8.11,6.62-9.95.53-19.72-2.74-28.85-6.3-13.11-5.1-26.16-10.7-39.88-14-11.48-2.77-29.34-5.52-36,7.26-.13.25.28.72.46.43,7.19-11.8,23.64-9.36,35-6.62,13.87,3.35,27,9.05,40.28,14.19,8.87,3.43,18.18,6.42,27.8,6.25,4.39-.08,13.25-1.94,10.51-8.31-1.42-3.31-4.8-5.76-7.56-7.88-3.4-2.61-7.25-5-9.93-8.43-1.71-2.18-2.25-5.35.67-6.86,2.49-1.3,5.93-.86,8.54-.22,4,1,7.79,3.3,11.45,5.14,3.38,1.7,6.78,3.34,10.27,4.79,4.06,1.68,8.12,2.6,12.51,1.87,2.88-.48,7.19-1.53,8.37-4.6.24-.61-.79-1-1-.42Z" style="fill:#263238"></path><path d="M378,180.2c-5.12,6.11-13.57,14.37-18.37,20.39a17.54,17.54,0,0,0-3.89,11.12c0,3,.86,5.5,3.79,4.22,2.12-.92,3.47-2,6.56-5.06,2.78-2.75,16.22-15.34,16.22-15.34s2.52-15.48,6.67-16.74,7.69-7.89,7.69-7.89C389.88,170.22,384.48,172.44,378,180.2Z" style="fill:#9a4a4d"></path><path d="M304.39,347.71s0-.08,0-.12l62.93-233.36s0,0,0,0v-.06a1.15,1.15,0,0,1,.06-.17,3.53,3.53,0,0,1,.45-.94,5.53,5.53,0,0,1,.72-.91,8.18,8.18,0,0,1,3.76-2c5.6-1.49,13.45.64,17.53,4.74a7.3,7.3,0,0,1,2.42,4.81,4,4,0,0,1-.16,1.24L329.84,352l-.65,2.42h0c-.48,1.81-2.18,3.28-5,4-5.62,1.48-13.49-.64-17.57-4.74C304.62,351.71,303.89,349.54,304.39,347.71Z" style="fill:#e6e6e6"></path><path d="M306.5,381h0l1.58-6.27h0a1,1,0,0,1,.82-.71,3.3,3.3,0,0,1,2.9.78,1.08,1.08,0,0,1,.37,1h0L310.62,382h0A2.13,2.13,0,0,1,306.5,381Z" style="fill:#455a64"></path><path d="M306.45,381.36h0c0-.12,0-.26,0-.38s0,0,0,0c.46,1.28,3,2.12,4.06,1.19a.42.42,0,0,1,0,.12s0,.12,0,.12a1.8,1.8,0,0,1-.4.56,2.13,2.13,0,0,1-3,0A2.06,2.06,0,0,1,306.45,381.36Z" style="fill:#263238"></path><path d="M306.44,369.47a11.42,11.42,0,0,0,10,2.7,4.11,4.11,0,0,0,2.53-1.61l9.3-14.41a7.74,7.74,0,0,1-4.07,2.34c-5.62,1.49-13.48-.63-17.57-4.74a7.63,7.63,0,0,1-2.36-4.24l.76,17.11a2,2,0,0,0,0,.34A4.24,4.24,0,0,0,306.44,369.47Z" style="fill:#e0e0e0"></path><path d="M307.06,361.93a14.25,14.25,0,0,0,12.44,3.36c2-.53,3.17-1.57,3.5-2.86s-.1-2.83-1.57-4.31A14.17,14.17,0,0,0,309,354.75c-2,.53-3.22,1.59-3.55,2.91S305.62,360.49,307.06,361.93Z" style="opacity:0.1"></path><path d="M306.44,369.47a11.42,11.42,0,0,0,10,2.7,4.11,4.11,0,0,0,2.53-1.61l9.3-14.41a7.74,7.74,0,0,1-4.07,2.34c-5.62,1.49-13.48-.63-17.57-4.74a7.63,7.63,0,0,1-2.36-4.24l.76,17.11a2,2,0,0,0,0,.34A4.24,4.24,0,0,0,306.44,369.47Z" style="fill:#e0e0e0"></path><path d="M306.11,374.48h0l-.7-15.62c0-.14,0-.28,0-.42,0-1.65,1.27-3,3.65-3.68a14.17,14.17,0,0,1,12.39,3.36c1.67,1.67,2.08,3.44,1.38,4.85a.36.36,0,0,1-.05.09l-.23.37L314,376.68h0a2.36,2.36,0,0,1-1.43.92,6.49,6.49,0,0,1-5.64-1.53A2.26,2.26,0,0,1,306.11,374.48Z" style="fill:#FFA200"></path><path d="M306.11,374.48h0l-.7-15.62c0-.14,0-.28,0-.42,0-1.65,1.27-3,3.65-3.68a14.17,14.17,0,0,1,12.39,3.36c1.67,1.67,2.08,3.44,1.38,4.85a.36.36,0,0,1-.05.09l-.23.37L314,376.68h0a2.36,2.36,0,0,1-1.43.92,6.49,6.49,0,0,1-5.64-1.53A2.26,2.26,0,0,1,306.11,374.48Z" style="opacity:0.1"></path><path d="M307.06,361.93a14.25,14.25,0,0,0,12.44,3.36c2-.53,3.17-1.57,3.5-2.86s-.1-2.83-1.57-4.31A14.17,14.17,0,0,0,309,354.75c-2,.53-3.22,1.59-3.55,2.91S305.62,360.49,307.06,361.93Z" style="fill:#FFA200"></path><path d="M307.06,361.93a14.25,14.25,0,0,0,12.44,3.36c2-.53,3.17-1.57,3.5-2.86s-.1-2.83-1.57-4.31A14.17,14.17,0,0,0,309,354.75c-2,.53-3.22,1.59-3.55,2.91S305.62,360.49,307.06,361.93Z" style="fill:#FFA200"></path><path d="M305.46,357.66a4,4,0,0,1,2.69-2.62,21,21,0,0,0,13.93,3.84,4,4,0,0,1,.92,3.55c-.33,1.29-1.54,2.33-3.5,2.86a14.25,14.25,0,0,1-12.44-3.36C305.62,360.49,305.11,359,305.46,357.66Z" style="opacity:0.05"></path><path d="M306.87,376.07a6.5,6.5,0,0,0,5.65,1.53,2.37,2.37,0,0,0,1.42-.93h0l4.14-6.4a4.06,4.06,0,0,1-2.08,1.18,10.33,10.33,0,0,1-9-2.43,3.87,3.87,0,0,1-1.21-2.18l.33,7.64h0A2.25,2.25,0,0,0,306.87,376.07Z" style="fill:#FFA200"></path><path d="M368.37,142.73a2.27,2.27,0,0,1,1.78-1.45,7.09,7.09,0,0,1,6.2,1.69,2.24,2.24,0,0,1,.8,2.15h0L366.9,183a2.38,2.38,0,0,0-.84-1.91,7.15,7.15,0,0,0-6.24-1.69,2.33,2.33,0,0,0-1.71,1.27Z" style="fill:#fafafa"></path><path d="M369.17,144.87a7.14,7.14,0,0,0,6.21,1.68,2.25,2.25,0,0,0,1.75-1.43,2.22,2.22,0,0,0-.78-2.15,7.09,7.09,0,0,0-6.2-1.69,2,2,0,0,0-1,3.59Z" style="fill:#e0e0e0"></path><path d="M365.55,125.89h0l0-.12s0-.1,0-.16l2.95-10.88.09-.34,0-.09h0c.53-1.54,2-2.79,4.41-3.42,5-1.34,12.11.57,15.78,4.27,1.85,1.86,2.49,3.81,2,5.47h0l-3,11.06a.31.31,0,0,0,0,.08l0,.09h0c-.49,1.59-2,2.89-4.46,3.54-5,1.34-12.11-.57-15.78-4.27C365.86,129.36,365.2,127.49,365.55,125.89Z" style="fill:#FFA200"></path><path d="M365.55,125.89h0l0-.12s0-.1,0-.16l2.95-10.88.09-.34,0-.09h0c.53-1.54,2-2.79,4.41-3.42,5-1.34,12.11.57,15.78,4.27,1.85,1.86,2.49,3.81,2,5.47h0l-3,11.06a.31.31,0,0,0,0,.08l0,.09h0c-.49,1.59-2,2.89-4.46,3.54-5,1.34-12.11-.57-15.78-4.27C365.86,129.36,365.2,127.49,365.55,125.89Z" style="opacity:0.05"></path><path d="M310,359l4.27-15.78,43.67-162.24s0,0,0-.06l.09-.34a2.33,2.33,0,0,1,1.71-1.27A7.15,7.15,0,0,1,366,181a2.37,2.37,0,0,1,.84,1.9,0,0,0,0,1,0,0l-.12.43L323,345.54l-4.26,15.8a2.25,2.25,0,0,1-1.75,1.43,7.05,7.05,0,0,1-4.73-.65,5.33,5.33,0,0,1-.58-.31,5.46,5.46,0,0,1-.9-.72A2.26,2.26,0,0,1,310,359Z" style="fill:#455a64"></path><path d="M358.77,182.85a7.13,7.13,0,0,0,6.21,1.68,2.25,2.25,0,0,0,1.75-1.43,2.23,2.23,0,0,0-.79-2.15,7,7,0,0,0-6.2-1.68,2.23,2.23,0,0,0-1.78,1.45A2.27,2.27,0,0,0,358.77,182.85Z" style="fill:#263238"></path><path d="M310,359l.65-2.39a21.8,21.8,0,0,0,8.77,2.37l-.64,2.4a2.25,2.25,0,0,1-1.75,1.43,7.05,7.05,0,0,1-4.73-.65,5,5,0,0,1-1.48-1A2.26,2.26,0,0,1,310,359Z" style="fill:#263238"></path><path d="M369.61,120.31c4.09,4.1,11.95,6.23,17.57,4.74,2.77-.75,4.48-2.22,4.95-4s-.14-4-2.22-6.09c-4.06-4.13-11.92-6.25-17.54-4.76-2.82.75-4.55,2.24-5,4.1S367.58,118.27,369.61,120.31Z" style="fill:#e0e0e0"></path><path d="M370,119.08c4.09,4.1,11.95,6.23,17.57,4.74,2.77-.75,4.48-2.22,5-4l0-.08.67-2.42a.47.47,0,0,1,0-.14c0-.13,0-.26.07-.39a3.15,3.15,0,0,0,0-.53c0-.11,0-.22,0-.34a.06.06,0,0,0,0-.06,1.32,1.32,0,0,0,0-.34,5.4,5.4,0,0,0-.42-1.49,3.23,3.23,0,0,0-.2-.42.84.84,0,0,0-.11-.21,2.5,2.5,0,0,0-.21-.35,9.31,9.31,0,0,0-1.42-1.78c-4.08-4.1-11.93-6.23-17.53-4.75a8.44,8.44,0,0,0-3.76,2l0,0a3.7,3.7,0,0,0-.37.42l-.31.43a2.79,2.79,0,0,0-.16.28l-.1.18c-.05.12-.11.24-.15.37l0,.08c0,.12-.09.24-.12.37l-.58,2.11a1.1,1.1,0,0,0-.09.29C367.19,114.87,367.92,117,370,119.08Z" style="fill:#FFA200"></path><path d="M370.64,116.65c4.08,4.1,11.95,6.22,17.56,4.74,2.78-.76,4.48-2.23,4.95-4s-.14-4-2.22-6.09c-4.05-4.12-11.92-6.24-17.53-4.76-2.82.75-4.55,2.25-5,4.1S368.61,114.61,370.64,116.65Z" style="fill:#fff;opacity:0.30000000000000004"></path><path d="M402.38,165.25h0a20.08,20.08,0,0,0,20.09-20.09v-1.11a17,17,0,0,0-17-17h-6.13a17,17,0,0,0-17,17v1.11A20.08,20.08,0,0,0,402.38,165.25Z" style="fill:#263238"></path><path d="M430.62,167.29h0a9.13,9.13,0,0,1-9.12-9.12V140h0a9.12,9.12,0,0,1,9.12,9.12Z" style="fill:#263238"></path><path d="M381.71,363.94a52.8,52.8,0,0,1-7.66,6.66,3.4,3.4,0,0,0-1.07,1.1c-.36.76-.92,2.62,2.51,3.81a12.72,12.72,0,0,0,10.57-1c2.82-1.76,2.94-5.43,5.6-7.52,2-1.55,4.42-1.94,6-4,1.11-1.41.82-3.28.24-5.6-.63-2.54-.92-4.45-1.76-4.26l.14,1.17c-1,1.67-6.47,2.16-8.88,1C387.41,355.33,383.23,362.27,381.71,363.94Z" style="fill:#263238"></path><path d="M379.33,366.31v0c.82-.75,1.62-1.52,2.38-2.35a66.52,66.52,0,0,0,4.43-6.53,10.06,10.06,0,0,0,1.89-4.76c.06-2.24-.16-6.23-.16-6.23l8-.53.39,8.43h0c.21,1.9-1.37,3.6-4.16,6s-6.35,8-8.88,9.44-4.34,1.36-5.42.64S376.61,369.09,379.33,366.31Z" style="fill:#b16668"></path><path d="M408.46,372a54,54,0,0,1-7.67,6.66,3.27,3.27,0,0,0-1.06,1.1c-.36.75-.93,2.61,2.5,3.81a12.75,12.75,0,0,0,10.58-1c2.81-1.77,2.94-5.43,5.59-7.52,2-1.55,4.43-1.95,6-4,1.1-1.41.82-3.28.24-5.6-.63-2.54-.92-4.45-1.76-4.26l.14,1.17c-1.05,1.67-6.47,2.16-8.89,1C414.15,363.36,410,370.3,408.46,372Z" style="fill:#263238"></path><path d="M406.08,374.34v0c.81-.75,1.61-1.52,2.38-2.36a65.17,65.17,0,0,0,4.42-6.52,11.31,11.31,0,0,0,1.88-4.85c.15-2,.05-6.06.05-6.06l8,.05.2,7.76h0c.2,1.91-1.37,3.61-4.17,6s-6.35,8-8.88,9.44-4.34,1.36-5.42.64S403.35,377.12,406.08,374.34Z" style="fill:#b16668"></path><path d="M422.93,224.43c7,15.29-1,73.26-1,73.26.21,2.48,2.4,6.33,2.66,13.92.33,9.72-1.4,45.65-1.4,45.65a10.15,10.15,0,0,1-9.16.18s-8.29-48.76-9.91-61.59c-1.41-11.2-4.12-37.52-4.12-37.52l-5.58,37.46s2.87,6.25,3,11.89c.2,7.58-.92,42.75-.92,42.75s-3.39,1.19-9.31.32c0,0-8.43-47.59-9.22-56.68-.48-5.42,3.58-71.93,3.58-71.93Z" style="fill:#37474f"></path><path d="M400,258.33l-2.27-12.5s-9.62-2-14-6.09c0,0,4.57,5.69,11.37,7.56l2.55,10.93-2.52,32.68Z" style="fill:#263238"></path><path d="M409.27,171.26h0c6.14.84,9.44,2.2,11.42,8,1.3,3.78.94,9.33-.36,13.11L415,208a84.08,84.08,0,0,1,8,16.4c-15.69,8.76-36.6,4.1-41.32-2.29-.2-1.36,1.07-7.92.69-14.87-.41-7.41-1.6-15.93-.43-20.51,2.16-8.51,8.1-14.07,14.79-15.86Z" style="fill:#f5f5f5"></path><path d="M388.9,135.15c-2.13,1.26-4.75,6.59-4.49,17.78.22,9.48,3.29,11.82,4.84,12.5s4.52.26,7.41-.22v5.69s-4,4.64-3.75,7.25,5.78,3.23,9.52.68a24.26,24.26,0,0,0,6.14-6.43V158.65s1.95,2.61,5.15.48,3.31-7.37,1.45-9.25-5.86-1.29-6.6,1.31c0,0-4.62.17-10.76-3.2A17.29,17.29,0,0,1,388.9,135.15Z" style="fill:#b16668"></path><path d="M395,150.55a1.21,1.21,0,0,0,1.13,1.29,1.23,1.23,0,0,0,1.25-1.18,1.19,1.19,0,1,0-2.38-.11Z" style="fill:#263238"></path><path d="M394.68,158.58l-2.77.89a1.43,1.43,0,0,0,1.8,1A1.53,1.53,0,0,0,394.68,158.58Z" style="fill:#9a4a4d"></path><path d="M385.22,146.89l2.41-1.68a1.41,1.41,0,0,0-2-.41A1.55,1.55,0,0,0,385.22,146.89Z" style="fill:#263238"></path><path d="M385.78,149.69a1.21,1.21,0,0,0,1.13,1.29,1.24,1.24,0,1,0-1.13-1.29Z" style="fill:#263238"></path><polygon points="391.4 149 391.21 156.18 387.44 155.01 391.4 149" style="fill:#9a4a4d"></polygon><path d="M396.66,165.21c3-.4,9.32-2.2,10.3-4.68a6.43,6.43,0,0,1-2.2,3.16c-1.87,1.61-8.1,3.42-8.1,3.42Z" style="fill:#9a4a4d"></path><path d="M348.41,217.46c1.86.71,3.73.75,6.27,2a12,12,0,0,0,5.49,1.56c2.5.12,9.49-2.86,15.64-5.72,7.25-3.37,15-9.47,17.93-12.83,6-6.8,11.17-15.32,13.83-19.87,2.18-3.74,4.44-9.18,7.89-9.87,6,.63,8.5,11.16,4.58,17.66s-10.89,15-18.32,22.21c-3.61,3.5-10.21,7.28-19.66,11.33A128.24,128.24,0,0,1,363,230.45c-1.9.5-3.23,1.2-6.79,2.42a15.8,15.8,0,0,1-4.5,1.12,20,20,0,0,1-5.72-.62,13.51,13.51,0,0,1-6.25-3.53,8.61,8.61,0,0,1-2.1-3.37,5.74,5.74,0,0,1,.14-3.92,1.58,1.58,0,0,1,.46-.65,1.85,1.85,0,0,1,1.41-.17c2.7.39,5.56,1.22,8.28,1.32,2.29.09,3.93-.16,3.64-.52s-1.65-.32-3.39-1.31-2.74-2.86-2.13-3.75S346.54,216.76,348.41,217.46Z" style="fill:#b16668"></path><path d="M348.33,192.27s2.5-2,7.25-1.21c2.29.38,1.41,9.08-6,11.5-4.81,1.58-5.79.77-7.34,4.72,0,0-2.9-.6-2.19-5A24.63,24.63,0,0,1,345.93,190c2.12-2.5,2.26-4.6,3.3-3.89s.45,2.87.45,2.87Z" style="fill:#b16668"></path></g></g></svg>